<?xml version="1.0" encoding="utf-8"?>
<!-- Generator: Adobe Illustrator 16.0.0, SVG Export Plug-In . SVG Version: 6.00 Build 0)  -->
<!DOCTYPE svg PUBLIC "-//W3C//DTD SVG 1.1//EN" "http://www.w3.org/Graphics/SVG/1.1/DTD/svg11.dtd">
<svg version="1.1" id="Layer_1" xmlns="http://www.w3.org/2000/svg" xmlns:xlink="http://www.w3.org/1999/xlink" x="0px" y="0px"
	  viewBox="0 0 3000 3000" enable-background="new 0 0 3000 3000" xml:space="preserve">
<g>
	<path fill-rule="evenodd" clip-rule="evenodd" fill="#35316F" d="M1500.268,169.867
		c740.835,0.479,1334.04,599.399,1329.837,1338.408c-4.112,725.801-589.162,1324.257-1334.638,1321.852
		C758.975,2827.78,176.813,2237.62,169.936,1513.584C162.854,767.698,761.035,169.892,1500.268,169.867z"/>
	<path fill-rule="evenodd" clip-rule="evenodd" d="M793.879,818.999c6.922-13.505,13.017-27.369,15.198-42.512
		c1.038-7.193,1.003-14.543,1.423-21.521c-9.139-2.59-31.512-3.409-37.926-1.371c0,3.858,0.19,8.01-0.025,12.151
		c-1.104,21.142-8.052,39.823-24.581,53.738c-15.276,12.87-31.686,23.281-53.236,20.606c-15.905-1.98-27.919-13.375-30.155-29.206
		c-1.687-11.899,1.172-22.21,9.522-31.098c18.086-19.255,36.005-38.65,53.966-58.03c1.897-2.046,3.614-4.281,5.91-7.026
		c-19.609-18.287-38.798-36.184-58.288-54.356c10.684-11.473,20.511-22.099,30.483-32.586c1.477-1.552,3.654-2.48,5.58-3.587
		c4.667-2.675,9.652-4.916,14.024-8.021c7.487-5.301,14.608-11.119,22.324-17.063c2.715,3.279,4.985,5.914,7.146,8.639
		c31.143,39.424,62.316,78.826,93.339,118.348c2.985,3.808,6.084,6.075,11.094,6.483c8.006,0.654,15.931,2.191,23.901,3.15
		c7.826,0.957,15.667,1.67,23.497,2.5c0.394-0.665,0.78-1.317,1.16-1.982c-42.553-53.937-85.1-107.872-128.192-162.488
		c16-12.322,31.138-24.548,46.915-35.908c9.094-6.559,19.235-11.675,28.847-17.533c3.364-2.058,6.802-4.269,10.795-2.601
		c6.777,2.833,13.979,5.215,19.895,9.372c9.677,6.803,12.845,18.131,9.322,29.262c-3.263,10.266-9.602,18.117-19.594,22.683
		c-2.156,0.995-4.303,1.988-7.896,3.649c6.039,4.996,10.63,9.514,15.9,13.017c23.703,15.741,49.953,21.934,78.102,18.727
		c27.759-3.17,48.96-16.671,61.863-42.049c0.823-1.622,1.736-3.209,3.143-5.793c5.795,12.261,11.449,23.446,16.375,34.93
		c2.385,5.58,6.014,8.6,11.6,10.417c12.542,4.083,24.929,8.625,37.42,12.856c1.907,0.65,4.028,0.659,7.448,1.174
		c-30.045-63.793-59.473-126.274-89.112-189.2c13.241-7.83,27.719-12.107,41.664-21.221c-8.075-2.78-14.114-4.921-20.194-6.937
		c-7.915-2.615-15.979-7.447-23.765-7.048c-7.786,0.399-15.413,5.834-22.914,9.483c-31.412,15.291-63.857,28.473-93.553,47.228
		c-33.214,20.968-66.909,41.19-100.118,62.157c-7.736,4.876-14.343,11.524-21.545,17.273c-10.256,8.175-20.567,16.277-30.324,23.991
		c-14.099-6.034-26.772-12.571-40.176-16.889c-13.392-4.315-27.421-6.777-41.305-9.397c-17.997-3.414-35.3-1.093-51.217,8.505
		c-27.828,16.809-29.894,48.807-4.381,68.878c12.941,10.171,28.014,15.632,44.029,18.626c1.792,0.33,3.833-0.648,5.76-1.018
		c0.181-0.668,0.369-1.353,0.554-2.021c-2.525-1.717-5.304-3.134-7.521-5.181c-6.089-5.64-13.085-10.759-17.667-17.477
		c-13.984-20.549-5.061-43.067,18.97-49.839c1.548-0.439,3.095-0.973,4.683-1.163c26.815-3.285,51.24,4.113,75.88,16.684
		c-7.876,6.259-14.913,11.764-21.85,17.404c-10.94,8.894-21.371,18.486-32.834,26.636c-11.913,8.465-20.368,20.068-30.279,30.32
		c-16.805,17.363-32.87,35.415-49.391,53.038c-26.187,27.953-52.538,55.747-78.656,83.756c-2.061,2.211-3.503,5.476-4.122,8.479
		c-1.722,8.306-4.912,15.762-9.688,22.805c-14.085,20.801-27.869,41.803-41.789,62.705c-1.428,2.14-2.491,5.165-4.512,6.163
		c-9.437,4.661-11.324,14.379-15.447,22.425c-4.337,8.48-7.046,17.788-11.354,26.272c-12.243,24.106-24.854,48.025-37.536,71.902
		c-2.056,3.878-5.505,6.992-7.681,10.811c-1.986,3.478-3.453,7.353-4.562,11.214c-1.223,4.247-1.153,8.898-2.705,12.981
		c-13.974,37.013-28.193,73.944-42.303,110.908c-1.178,3.079-2.101,6.254-3.853,11.505c11.404-5.007,20.263-9.623,29.601-12.802
		c9.742-3.315,14.972-9.458,18.191-19.101c5.286-15.777,11.804-31.132,17.858-46.8c5.439,0,10.275-0.378,15.031,0.081
		c10.357,0.987,20.25,3.813,29.112,9.467c13.275,8.465,19.216,24.201,14.063,37.596c-3.992,0.226-8.159,0.265-12.296,0.724
		c-9.329,1.054-13.669,5.754-14.279,15.137c-0.575,8.759,3.02,13.61,12.137,15.698c3.428,0.783,7.077,1.261,10.557,0.957
		c9.912-0.842,19.907-1.507,29.65-3.389c34.252-6.603,67.103-17.916,99.297-31.132c12.492-5.127,24.791-10.767,37.078-16.386
		c2.939-1.342,6.553-2.52,7.326-8.049c-7.885,1.702-15.026,3.059-22.084,4.8c-25.921,6.383-51.765,13.082-77.742,19.241
		c-8.306,1.971-16.786,4.367-26.009,2.399c0.165-2.116,0.17-3.993,0.455-5.824c4.812-30.125-11.749-48.995-34.637-55.434
		c-14.458-4.073-29.167-4.775-44.024-2.98c-5.58,0.674-11.15,1.482-17.922,2.401c3.588-9.603,6.697-18.002,9.876-26.356
		c2.865-7.526,5.974-14.953,8.706-22.52c2.769-7.67,6.112-14.832,12.072-20.771c2.824-2.806,4.262-7.008,6.523-10.906
		c2.29,0.939,4.087,1.526,5.749,2.376c13.151,6.792,26.303,13.61,39.424,20.452c33.109,17.264,66.264,34.442,99.258,51.921
		c5.256,2.79,9.841,3.378,15.497,1.356c12.422-4.432,25.059-8.2,37.59-12.333c1.907-0.624,3.648-1.722,7.252-3.467
		c-63.01-32.82-124.233-64.727-185.326-96.56c4.885-15.131,26.192-51.399,34.022-57.994c10.871,7.222,22.233,14.004,32.74,21.916
		c17.309,13.041,36.209,15.221,56.776,10.965c41.35-8.58,64.407-40.218,67.127-72.638c0.095-1.088,0.848-2.136,1.577-3.873
		c18.416,12.606,38.694,16.929,59.901,17.743c18.726,0.709,36.288-2.042,51.701-14.479c10.85-8.768,20.857-18.151,29.641-28.907
		c-4.507,18.886-10.522,37.487-12.164,57.919c8.949,0.749,16.794,1.403,24.85,2.072c2.256-13.831,4.297-26.491,6.394-39.148
		c1.747-10.571,1.776-10.526,12.917-11.021c17.692-0.799,35.379-1.622,53.073-2.5c7.132-0.355,7.132-0.439,8.229-8.829
		c-1.756-0.439-3.553-1.222-5.369-1.272c-27.041-0.808-54.082-1.532-81.113-2.217C796.395,818.235,795.137,818.739,793.879,818.999z
		"/>
	<path fill-rule="evenodd" clip-rule="evenodd" d="M2354.624,1522.139c-0.189-75.717-4.641-125.955-13.543-175.833
		c-14.086-79.097-39.03-154.579-74.325-226.67c-14.894-30.385-32.162-59.406-49.899-88.209
		c-17.907-29.023-41.094-54.25-58.683-83.557c-6.248-10.406-15.431-19.56-25.842-27.086c-11.121-8.03-20.913-17.574-30.354-27.83
		c-8.765-9.483-17.768-19.199-27.301-27.975c-59.621-54.864-126.188-99.756-198.976-135.322
		c-75.691-36.981-155.037-62.58-238.284-75.571c-25.084-3.928-50.397-6.328-75.652-9.202c-8.484-0.969-16.16-5.042-25.243-4.179
		c-15.602,1.493-31.363,1.313-47.06,2.071c-19.938,0.959-39.866,1.912-59.765,3.269c-38.915,2.667-77.335,8.804-115.339,17.504
		c-180.844,41.378-332.862,131.579-455.731,270.439c-67.673,76.497-119.218,162.967-155.701,258.392
		c-29.627,77.479-47.378,157.671-53.702,240.325c-2.805,36.614-3.124,73.312-1.029,110.044
		c2.276,39.928,6.903,79.536,14.748,118.692c28.104,140.314,87.186,266.145,178.04,376.781
		c14.874,18.117,31.973,34.387,47.414,52.045c6.512,7.477,14.404,13.445,20.876,20.513c10.001,10.88,20.423,20.972,31.616,30.634
		c81.926,70.582,173.669,124.175,275.586,160.247c61.204,21.661,124.063,36.363,188.675,43.171
		c15.357,1.607,30.776,2.556,46.167,3.824c14.353,1.207,28.706,3.033,43.115,3.531c17.673,0.609,35.4,0.19,53.099,0.051
		c2.824-0.009,6.118-0.159,8.335-1.577c5.81-3.693,11.938-4.241,18.516-4.001c4.801,0.188,9.713,0.039,14.464-0.699
		c32.061-5.08,64.491-8.715,96.113-15.883c184.962-41.871,340.527-133.982,463.832-278.17
		C2285.103,1892.501,2351.812,1706.452,2354.624,1522.139z"/>
	<path fill-rule="evenodd" clip-rule="evenodd" d="M2614.659,1125.683c0.688-0.05,1.377-0.095,2.025-0.145
		c5.262-13.006,10.651-25.946,15.583-39.062c0.798-2.097,0.259-5.191-0.698-7.358c-16.801-37.635-29.058-77.233-49.99-113.123
		c-14.603-25.009-27.679-50.907-41.574-76.33c-3.354-6.129-7.106-12.039-10.959-17.857c-19.555-29.507-39.039-59.073-58.893-88.368
		c-6.069-8.949-13.066-17.309-20.054-25.59c-4.312-5.114-9.732-9.297-14.063-14.398c-12.947-15.201-25.584-30.673-38.39-45.995
		c-6.159-7.361-11.958-15.172-18.866-21.815c-19.445-18.741-39.268-37.137-59.172-55.399c-25.543-23.396-48.61-49.747-79.194-67.137
		c-7.188-4.077-8.863-10.116-9.304-17.493c-1.248-20.562-2.416-41.139-4.242-61.652c-1.636-18.646-5.119-36.986-13.465-54.007
		c-6.548-13.39-16.252-23.9-29.666-30.693c-1.826-0.918-4.032-1.128-6.837-1.872c0,11.459-0.15,22.005,0.159,32.54
		c0.04,1.788,1.728,4.232,3.364,5.146c11.339,6.377,17.566,16.789,22.618,28.073c11.569,25.752,14.664,53.143,15.321,80.977
		c0.02,0.326-0.858,0.673-1.636,1.263c-2.506-1.772-5.142-3.587-7.728-5.446c-17.485-12.621-34.596-25.767-52.573-37.671
		c-13.035-8.668-27.091-15.845-40.836-23.411c-25.861-14.21-49.867-31.562-77.218-43.271
		c-37.851-16.216-75.231-33.509-112.854-50.298c-2.155-0.969-4.501-1.522-8.443-2.82c5.13,14.298,9.472,27.005,14.373,39.498
		c0.898,2.275,3.914,4.104,6.338,5.345c6.03,3.055,12.059,6.458,18.486,8.259c11.15,3.115,14.894,11.146,16.28,21.282
		c0.341,2.541,0.52,5.136,0.5,7.702c-0.2,15.85-10.291,26.451-26.142,27.962c-10.73,1.023-20.313-1.667-29.037-8.874
		c-0.878,2.342-1.618,3.785-1.938,5.297c-0.438,2.195-0.707,4.446-0.889,6.688c-2.116,28.946,6.539,54.86,23.688,77.708
		c19.283,25.667,44.737,38.09,77.448,32.359c0.559-0.095,1.177,0.291,2.354,0.624c-1.147,2.331-2.095,4.646-3.353,6.788
		c-5.362,9.154-10.702,18.357-16.351,27.35c-2.376,3.81-3.204,7.367-1.917,11.814c3.853,13.61,7.327,27.33,11.079,40.974
		c0.461,1.722,1.538,3.279,2.985,6.22c36.014-60.659,71.398-120.246,106.895-180.041c22.35,13.191,44.479,24.246,62.076,42.418
		c-1.797,2.495-3.244,4.597-4.762,6.646c-30.295,41.28-60.549,82.595-91.053,123.724c-3.782,5.1-5.241,9.772-3.653,16.006
		c1.588,6.204,1.985,12.707,3.075,19.045c1.415,8.324,2.953,16.619,4.471,24.934c0.689,0.105,1.378,0.201,2.077,0.299
		c41.323-55.593,81.829-111.79,123.403-167.547c7.855,5.754,14.523,10.775,21.341,15.621c5.999,4.247,13.386,7.261,17.898,12.691
		c7.026,8.46,15.542,15.094,23.376,22.55c21.002,19.988,42.673,39.298,63.105,59.829c15.172,15.248,34.557,26.731,43.93,47.499
		c1.626,3.629,4.86,6.539,7.756,10.297c-13.965,11.438-26.971,22.903-41.205,32.949c0.879-5.854,2.156-11.139,3.923-16.25
		c1.328-3.863,0.607-6.643-2.396-9.447c-22.579-21.127-45.019-42.398-67.587-63.524c-1.417-1.317-3.494-1.912-6.737-3.599
		c0.5,3.747,0.769,5.81,1.048,7.854c0.729,5.082,2.127,10.157,2.086,15.228c-0.179,16.58-10.58,30.57-25.434,34.991
		c-14.752,4.392-29.376-1.471-38.7-16.384c-3.551-5.645-6.896-12.019-7.984-18.441c-1.835-11.004-2.105-22.33-2.484-33.528
		c-0.161-5.226-0.46-9.589-7.428-10.851c-6.567,28.616-8.613,56.72,3.425,84.32c4.991,11.468,12.615,20.936,22.957,28.042
		c21.651,14.884,53.722,11.102,66.499-19.507c1.197-2.91,2.295-5.88,3.863-9.922c14.963,14.125,29.275,27.634,43.85,41.393
		c-3.074,2.645-5.2,4.563-7.428,6.414c-21.76,18.142-43.489,36.343-65.42,54.331c-4.282,3.534-6.368,7.412-6.648,13.071
		c-0.717,13.814-2.136,27.595-3.203,41.39c-0.09,1.356,0.349,2.765,0.76,5.785c54.139-45.049,107.024-89.053,160.875-133.845
		c6.947,10.94,18.106,18.007,21.131,31.163c0.519,2.226,2.785,4.138,4.472,5.989c5.161,5.664,11.23,10.677,15.502,16.909
		c17.997,26.312,35.105,53.238,53.331,79.385c7.459,10.661,11.211,22.753,17.51,34.786c-20.213,10.471-39.457,21.941-60.32,30.505
		c2.316-3.824,4.631-7.646,7.137-11.768c-7.097-10.627-14.064-21.063-21.042-31.483c-14.143-21.137-28.228-42.323-42.452-63.399
		c-7.035-10.412-13.175-11.275-23.187-3.609c-7.099,5.426-12.677,12.323-15.053,20.823c-3.363,12.017-6.12,24.296-7.915,36.643
		c-0.719,5.05,0.867,10.979,2.994,15.786c3.822,8.455,11.947,10.8,20.113,6.593c5.67-2.928,11.08-6.344,17.278-9.946
		c12.528,18.655,24.785,36.917,37.321,55.587c-3.823,2.197-6.559,3.838-9.352,5.365c-16.4,8.919-32.751,17.938-49.281,26.602
		c-4.642,2.436-7.346,5.564-8.713,10.669c-3.365,12.743-7.258,25.344-10.82,38.051c-0.62,2.217-0.57,4.627-1.028,8.555
		c62.186-33.679,122.895-66.535,184.333-99.814c7.764,14.719,15.581,28.408,22.238,42.623c4.012,8.516,6.22,17.862,9.354,27.215
		c-15.731,6.523-30.544,12.702-45.378,18.821c-34.496,14.248-68.952,28.612-103.539,42.581c-6.559,2.636-10.432,6.455-12.818,13.106
		c-4.172,11.81-9.232,23.317-13.834,34.987c-0.738,1.882-0.968,3.977-1.776,7.566c65.291-26.955,129.074-53.288,193.516-79.894
		C2603.34,1098.717,2609.01,1112.209,2614.659,1125.683z"/>
	<path fill-rule="evenodd" clip-rule="evenodd" d="M1328.796,553.934c0.5-0.549,0.998-1.092,1.487-1.642
		c-2.446-2.444-4.862-4.932-7.351-7.326c-18.162-17.368-36.41-34.637-54.457-52.1c-6.576-6.375-12.512-13.351-17.592-21.586
		c3.305-1.393,6.02-1.921,7.926-3.453c6.054-4.856,12.126-3.434,18.92-1.772c29.416,7.193,56.077,1.213,79.724-17.832
		c1.178-0.948,2.401-1.812,4.636-3.509c2.096,20.035,4.249,38.814,5.885,57.625c0.554,6.179,2.306,10.87,7.521,14.718
		c10.621,7.826,20.792,16.271,31.204,24.391c1.622,1.263,3.548,2.142,6.853,4.113c-7.401-70.313-14.664-138.961-21.931-207.895
		c2.6-0.633,4.412-1.228,6.249-1.497c22.638-3.379,45.461-3.398,68.25-3.563c34.118-0.229,68.266,0.813,102.393,0.669
		c11.379-0.056,21.781,3.613,33.58,4.801c-2.687,24.77-5.292,48.625-7.758,71.284c-13.375,7.905-25.593,15.043-37.72,22.344
		c-10.081,6.08-21.111,9.628-32.63,11.221c-9.265,1.276-18.586,1.142-27.569-2.571c-6.543-2.695-9.679-7.536-9.369-14.239
		c0.858-18.73,15.717-37.866,36.268-38.419c12.239-0.324,23.548,2.75,34.788,6.862c2.715,1.004,5.419,3.434,9.771,0.449
		c-9.003-9.073-17.519-17.683-26.092-26.262c-0.449-0.424-1.099-0.644-1.688-0.899c-13.355-5.924-27.02-10.81-41.929-9.478
		c-12.651,1.133-23.805,5.689-30.948,17.035c-10.261,16.27-7.677,45.402,4.681,55.928c5.34,4.555,9.193,10.781,14.186,15.791
		c16.28,16.44,35.714,25.957,59.211,26.471c15.063,0.324,29.387-2.136,43.311-11.768c-0.509,5.03-0.837,8.475-1.208,11.919
		c-0.948,8.963-1.756,17.941-2.934,26.865c-0.689,5.14,0.518,9.238,3.982,13.23c8.006,9.253,15.581,18.86,23.387,28.288
		c2.007,2.396,4.183,4.597,7.937,8.698c7.695-70.929,15.16-139.694,22.687-208.927c25.693,2.28,49.97,4.661,73.547,12.422
		c-0.24,2.366-0.269,3.973-0.578,5.521c-5.321,25.508-10.672,51.001-16.012,76.5c-5.34,25.488-10.602,51.002-16.091,76.464
		c-1.288,6.019-0.599,11.01,3.214,16.207c7.606,10.375,14.454,21.316,21.711,31.962c1.147,1.681,2.805,3.018,5.38,5.76
		c14.394-69.035,28.468-136.467,42.692-204.731c15.422,2.983,29.625,5.739,43.819,8.484c-5.749-11.943-12.735-21.915-19.144-32.236
		c-3.176-5.121-7.378-7.581-13.078-8.669c-11.357-2.172-22.597-5.131-34.018-6.888c-25.193-3.863-49.36-13.225-75.382-13.031
		c-12.776,0.094-25.543-2.786-38.35-4.052c-31.603-3.13-62.924-8.33-94.976-7.012c-30.555,1.257-61.209-0.17-91.813,0.179
		c-10.327,0.13-20.687,1.982-30.998,3.274c-9.433,1.188-18.127,1.747-25.114-7.197c-5.091-6.533-11.754-11.893-18.002-17.453
		c-15.646-13.875-30.914-28.264-47.409-41.056c-8.709-6.747-19.309-11.638-29.74-15.531c-14.144-5.275-28.812-5.315-44.384,1.607
		c6.269,6.783,12.103,12.682,17.443,18.984c4.661,5.521,9.257,9.394,17.199,6.174c2.724-1.098,6.507-0.524,9.501,0.299
		c7.747,2.101,15.598,4.132,22.895,7.342c24.939,10.975,44.653,28.978,63.29,48.292c0.224,0.24-0.19,1.118-0.366,2.062
		c-8.159,0.878-16.47,1.602-24.709,2.675c-19.728,2.57-39.626,4.297-59.077,8.195c-34.981,7.007-69.708,15.332-104.528,23.163
		c-10.856,2.446-21.656,5.08-33.024,7.755c1.063,1.678,1.373,2.701,2.066,3.179c10.076,6.942,20.032,14.08,30.433,20.493
		c2.6,1.602,6.774,1.482,10.032,0.973c6.343-0.979,12.537-2.86,18.815-4.252c9.039-2.012,18.098-3.928,26.772-5.814
		c9.626,13.645,15.456,28.432,16.974,42.431c1.736,16.121-6.069,29.032-20.208,32.971c-3.09-4.317-6.105-8.845-9.438-13.121
		c-2.665-3.405-6.05-5.949-10.716-5.416c-10.865,1.258-16.784,10.546-13.194,21.011c1.231,3.604,2.889,7.283,5.215,10.266
		c5.714,7.356,11.6,14.628,17.977,21.411c29.835,31.708,65.54,55.923,101.83,79.421
		C1324.733,552.102,1326.835,552.932,1328.796,553.934z"/>
	<path fill-rule="evenodd" clip-rule="evenodd" d="M2462.438,1797.306c-3.732,8.454-6.677,15.9-10.261,22.996
		c-2.377,4.663-1.139,7.548,2.426,10.82c9.023,8.256,17.576,17.029,26.57,25.296c27.011,24.833,54.131,49.56,81.283,74.264
		c1.496,1.376,3.671,2.007,5.519,2.983c-27.998-1.099-54.211-3.663-80.464-5.808c-26.25-2.136-52.503-3.854-79.084-5.801
		c-2.415,5.37-4.582,10.001-6.598,14.673c-1.977,4.621-3.863,9.304-6.061,14.664c56.059,29.096,111.308,57.765,167.624,86.99
		c3.453-7.996,6.399-14.833,9.653-22.359c-47.573-23.906-94.058-47.283-139.146-69.951c52.911,4.811,107.162,9.763,161.862,14.723
		c2.855-6.578,5.251-12.067,7.957-18.266c-39.988-37.473-79.605-74.615-120.381-112.854c49.641,18.495,97.931,36.483,146.871,54.7
		c3.515-8.124,6.489-15.043,9.822-22.838C2580.45,1839.996,2522.168,1818.896,2462.438,1797.306z"/>
	<path fill-rule="evenodd" clip-rule="evenodd" d="M539.664,1664.179c-61.187,16.319-121.307,32.34-181.767,48.472
		c1.323,8.385,2.385,15.85,6.847,23.217c49.09-13.426,97.86-26.771,145.135-39.687c-24.491,25.582-49.908,52.044-75.168,78.596
		c-14.198,14.941-28.177,30.104-42.217,45.188c-2.36,2.555-5.589,4.771-4.432,9.014c1.832,6.737,3.758,13.456,5.87,20.951
		c31.069-8.175,61.223-15.86,91.224-24.116c30.189-8.273,60.709-15.441,91.586-24.875c-3.897-7.834-2.983-15.76-8.6-22.528
		c-47.638,13.207-95.296,26.412-141.296,39.149c20.013-20.753,41.14-42.373,61.911-64.343
		c17.723-18.707,35.071-37.761,52.489-56.747c2.276-2.466,5.745-4.511,4.546-8.913
		C543.787,1680.19,541.911,1672.804,539.664,1664.179z"/>
	<path fill-rule="evenodd" clip-rule="evenodd" d="M823.017,2388.693c2.265-10.939,4.725-20.613,6.212-30.415
		c3.615-23.835,6.824-47.753,10.126-71.639c3.04-21.97,6.095-43.948,8.824-65.968c0.349-2.866-0.269-6.889-2.095-8.715
		c-5.376-5.44-11.585-10.012-18.088-15.452c-40.5,48.682-80.367,96.554-120.744,145.104c6.434,5.331,12.03,9.981,18.537,15.401
		c32.786-39.896,65.011-79.125,97.941-119.211c-2.391,12.197-4.94,23.166-6.652,34.266c-4.023,26.063-7.707,52.165-11.415,78.289
		c-2.659,18.794-5.24,37.59-7.626,56.406c-0.493,3.934-2.425,8.396,1.602,11.787c5.336,4.513,10.752,8.916,16.721,13.876
		c40.565-48.712,80.426-96.585,120.708-144.976c-6.607-5.52-12.173-10.182-18.59-15.551
		C886.43,2311.095,855.132,2349.404,823.017,2388.693z"/>
	<path fill-rule="evenodd" clip-rule="evenodd" d="M688.162,2287.129c5.107-0.589,10.311-0.71,15.282-1.837
		c35.65-8.166,61.773-29.225,80.069-60.349c6.772-11.499,10.077-24.236,10.854-37.671c2.412-41.574-38.603-96.733-101.124-84.127
		c-38.63,7.787-66.993,31.373-82.773,67.587C583.479,2232.719,638.854,2288.896,688.162,2287.129z"/>
	<path fill-rule="evenodd" clip-rule="evenodd" d="M2308.11,2082.463c20.133,16.999,39.687,33.538,59.9,50.627
		c-19.364,23.068-38.301,45.617-57.645,68.646c-20.463-17.107-40.087-33.508-60.329-50.468c-5.331,7.437-11.88,12.269-15.114,20.192
		c47.854,40.147,95.386,80.055,143.617,120.531c5.592-6.738,10.602-12.777,16.021-19.306c-22.867-19.324-44.868-37.9-67.137-56.728
		c19.573-23.275,38.381-45.636,57.675-68.564c22.778,19.017,44.857,37.473,67.408,56.308c3.213-3.773,5.729-6.647,8.175-9.602
		c2.563-3.125,5.08-6.299,8.024-9.963c-48.511-40.686-96.194-80.731-144.316-121.139
		C2318.569,2069.956,2313.671,2075.816,2308.11,2082.463z"/>
	<path fill-rule="evenodd" clip-rule="evenodd" d="M1448.592,2473.489c-0.958,62.555-1.892,123.861-2.854,185.409
		c9.159,0.95,16.968,1.758,25.084-0.329c1.012-26.76-0.056-53.072,2.285-79.165c8.913,0,16.92-0.39,24.875,0.069
		c16.621,1.029,26.272,10.58,30.583,26.184c0.749,2.784,1.479,5.6,2.128,8.395c2.555,10.969,4.89,21.979,7.655,32.889
		c1.198,4.822,3.245,9.473,4.851,13.984c8.804,0,16.431,0,24.556,0c-0.289-2.065-0.339-3.632-0.708-5.11
		c-3.595-14.334-7.548-28.588-10.752-43.021c-3.772-16.97-9.162-32.75-26.521-42.193c3.266-1.656,5.541-2.725,7.738-3.912
		c19.762-10.661,28.814-28.537,26.511-52.395c-1.848-18.875-14.944-33.958-35.736-39.737c-8.293-2.315-16.999-3.315-25.607-4.144
		C1484.98,2468.697,1467.462,2470.674,1448.592,2473.489z"/>
	<path fill-rule="evenodd" clip-rule="evenodd" d="M465.316,2021.385c50.083-45.545,98.794-89.855,147.47-134.114
		c-2.575-6.059-4.641-11.119-6.867-16.102c-5.546-12.407-3.055-11.619-17.698-10.551c-20.543,1.487-41.04,3.584-61.567,5.262
		c-35.605,2.874-71.221,5.589-106.84,8.454c-5.371,0.431-10.686,1.409-17.194,2.296c2.316,5.499,4.218,10.201,6.244,14.854
		c3.877,8.902,3.902,8.863,13.69,7.835c10.241-1.068,20.482-2.137,30.729-3.064c6.981-0.618,13.979-1.019,21.271-1.558
		c8.739,20.173,17.289,39.877,26.018,59.99c-15.542,14.234-30.659,28.099-46.056,42.194
		C458.053,2004.895,461.257,2012.172,465.316,2021.385z"/>
	<path fill-rule="evenodd" clip-rule="evenodd" d="M838.148,2448.863c8.695,5.181,15.502,9.213,22.389,13.316
		c16.121-13.696,31.523-26.771,47.353-40.218c19.045,11.559,37.623,22.809,56.134,34.039c-4.479,20.742-8.75,40.486-12.942,59.87
		c8.888,7.356,15.537,11.108,23.228,12.995c14.024-64.262,28.042-128.494,42.103-192.946c-9.184-5.5-17.379-10.432-25.803-15.473
		C939.917,2363.159,889.79,2405.354,838.148,2448.863z"/>
	<path fill-rule="evenodd" clip-rule="evenodd" d="M2332.694,2048.855c18.927,14.254,152.781,97.632,160.277,99.796
		c18.376-29.155,36.832-58.453,55.888-88.676c-6.388-3.934-11.929-7.339-18.058-11.08c-14.802,23.287-29.035,45.676-43.439,68.395
		c-19.216-12.128-37.383-23.617-56.217-35.516c12.935-20.622,25.521-40.705,38.689-61.698c-6.209-3.892-11.739-7.325-17.709-11.027
		c-13.324,20.961-26.012,40.914-39.029,61.386c-16.898-10.66-32.799-20.681-49.148-30.983c13.904-22.159,27.209-43.35,40.965-65.261
		c-6.269-3.922-11.81-7.396-18.008-11.268C2368.489,1992.089,2350.692,2020.308,2332.694,2048.855z"/>
	<path fill-rule="evenodd" clip-rule="evenodd" d="M2570.251,1778.828c6.198-23.815,12.156-46.674,18.315-70.36
		c-6.956-1.876-12.986-3.514-19.764-5.32c-7.775,23.667-12.078,47.283-19.565,70.122c-19.283-5.312-37.699-9.243-55.716-15.153
		c6.606-25.273,12.905-49.399,19.384-74.104c-7.316-1.946-13.395-3.554-20.513-5.44c-8.824,33.269-17.388,65.699-26.202,98.989
		c61.307,16.19,121.447,32.082,182.546,48.221c9.233-34.896,18.108-68.574,27.191-102.932c-7.358-1.955-13.437-3.573-20.493-5.47
		c-7.107,26.472-13.954,52.045-21.062,78.485C2612.484,1790.048,2591.801,1784.549,2570.251,1778.828z"/>
	<path fill-rule="evenodd" clip-rule="evenodd" d="M1985.511,2356.242c-31.153,14.483-61.548,28.618-92.701,43.093
		c26.771,57.553,52.983,113.961,79.584,171.195c32.711-15.221,64.343-29.914,96.635-44.947c-3.375-7.008-6.209-12.886-9.226-19.114
		c-24.894,11.497-48.74,22.507-73.534,33.937c-9.492-20.521-18.617-40.137-27.969-60.269c22.47-10.531,43.88-20.554,65.979-30.904
		c-3.093-6.657-5.739-12.366-8.813-18.916c-22.28,10.252-43.75,20.144-66.139,30.454c-8.256-17.768-16.171-34.806-24.466-52.653
		c23.477-11.019,46.305-21.69,69.801-32.7C1991.41,2368.61,1988.704,2362.94,1985.511,2356.242z"/>
	<path fill-rule="evenodd" clip-rule="evenodd" d="M1419.006,2569.093c0.928-7.585,1.672-13.535,2.53-20.672
		c-24.355-3.515-47.713-6.848-71.809-10.32c2.65-19.176,5.181-37.522,7.916-57.256c25.648,3.383,50.577,6.668,75.91,10.031
		c1.258-7.516,3.818-13.814,1.892-21.172c-33.184-4.6-66.094-9.152-99.968-13.823c-8.709,62.935-17.248,124.521-25.892,187.008
		c35.666,4.95,69.923,9.713,104.534,14.514c2.801-7.337,3.908-14.005,2.39-21.122c-26.401-3.753-52.358-7.438-78.211-11.08
		c0.618-17.598,6.987-59.121,10.071-65.66C1371.379,2562.665,1394.512,2565.769,1419.006,2569.093z"/>
	<path fill-rule="evenodd" clip-rule="evenodd" d="M1557.871,2474.057c28.179,60.799,55.689,120.171,83.438,180.111
		c9.153-1.058,17.687-2.058,25.903-3.004c4.392-9.273,44.768-187.288,44.178-195.214c-6.028,0.629-11.997,1.577-18.006,1.817
		c-5.061,0.21-7.348,2.324-8.365,7.286c-8.994,43.75-18.206,87.46-27.26,131.2c-1.797,8.524-3.153,17.1-4.822,26.321
		c-22.817-51.156-45.197-101.244-67.706-151.712C1576.188,2471.921,1568.263,2472.84,1557.871,2474.057z"/>
	<path fill-rule="evenodd" clip-rule="evenodd" d="M497.326,1395.82c-12.746,0.624-24.589,6.648-38.32,4.046
		c-2.534-7.625-5-15.546-7.834-23.357c-2.826-7.725-3.919-16.235-9.478-24.855c-6.109,21.343-11.644,40.707-17.258,60.312
		c-20.269,2.08-39.817,4.096-59.377,6.093c-0.125,0.76-0.25,1.483-0.375,2.236c13.426,7.3,26.841,14.613,40.362,21.964
		c0.28,7.577,1.677,14.874-3.968,21.256c-1.422,1.636-1.417,4.871-1.382,7.387c0.1,6.503-0.663,12.562-3.748,18.584
		c-3.668,7.128-1.977,13.666,2.94,16.251c4.611,2.405,10.571-0.897,14.813-7.506c2.734-4.261,5.6-8.843,9.498-11.874
		c7.496-5.853,15.757-10.709,23.487-15.836c7.007,3.698,13.865,5.94,14.947,14.633c0.234,1.801,3.399,3.424,5.451,4.781
		c3.098,2.047,7.316,3.084,9.428,5.82c4.465,5.749,10.175,5.919,16.4,5.819c4.211-0.07,7.86-1.139,9.308-5.371
		c1.507-4.371-1.582-6.537-4.507-9.467c-4.641-4.652-8.041-10.535-11.963-15.906c2.625-7.951-4.082-11.345-7.886-16.146
		c-2.26-2.86-3.412-11.823-1.272-14.404c6.259-7.487,10.747-16.459,19.624-21.811c6.005-3.646,11.22-8.609,16.7-13.116
		c1.532-1.252,2.74-2.924,5.175-5.589c-7.65,0-13.619,0-19.253,0C498.156,1397.99,497.726,1396.874,497.326,1395.82z"/>
	<path fill-rule="evenodd" clip-rule="evenodd" d="M2652.859,1408.731c-0.35-0.808-0.69-1.618-1.038-2.446
		c-5.42,0-10.841,0-16.271,0c-3.554-6.573-8.813-2.355-13.255-1.826c-8.805,1.102-17.379,4.686-27.291,2.824
		c-2.655-7.706-5.27-15.557-8.016-23.387c-2.784-7.795-3.752-16.37-9.542-24.81c-6.05,21.162-11.628,40.522-17.11,59.612
		c-20.332,3.079-40.056,3.288-59.35,6.593c-0.079,0.724-0.169,1.426-0.23,2.136c13.487,7.297,26.98,14.594,40.627,21.959
		c-0.719,7.333,1.747,14.614-4.322,20.488c-1.139,1.113-1.407,3.629-1.298,5.43c0.498,7.887-0.799,15.114-4.403,22.33
		c-3.263,6.458-0.937,13.197,3.785,15.162c4.281,1.759,10.2-1.028,13.684-6.539c0.68-1.086,0.979-2.443,1.728-3.441
		c2.097-2.826,4.003-5.959,6.648-8.156c8.095-6.682,16.379-13.186,26.869-16.7c3.524,2.136,9.594,3.749,10.182,6.539
		c1.987,9.263,8.773,12.467,15.861,15.981c0.829,0.409,1.758,0.997,2.236,1.746c4.172,6.508,10.63,6.458,17.147,6.089
		c4.073-0.229,7.777-1.437,8.874-5.978c1.028-4.174-2.215-6.011-4.661-8.656c-4.462-4.851-10.621-10.071-11.418-15.791
		c-1.01-7.211-4.432-11.499-8.665-16.21c-2.726-3.069-2.655-11.778-0.659-15.292c5.689-9.876,13.744-17.347,22.848-23.991
		C2641.69,1418.094,2647.198,1413.313,2652.859,1408.731z"/>
	<path fill-rule="evenodd" clip-rule="evenodd" d="M2124.347,2274.683c-20.554,2.784-36.583,11.736-50.678,24.514
		c-7.497,6.777-13.137,15.003-16.551,24.615c-10.151,28.668,7.088,58.113,36.833,63.615c13.465,2.514,26.172-0.839,39.158-3.066
		c9.144-1.557,18.427-2.894,27.671-3.243c8.873-0.319,16.039,4.123,21.539,11.05c10.432,13.165,9.492,29.216-2.844,41.973
		c-12.089,12.526-27.371,18.836-44.3,21.752c-2.396,0.419-4.772,1.026-8.125,1.756c2.257,7.097,4.253,13.375,6.408,20.133
		c3.564-0.279,6.458-0.189,9.185-0.808c20.93-4.762,39.298-14.435,53.971-30.206c4.741-5.09,8.863-11.158,11.918-17.418
		c16.93-34.677-11.27-70.121-37.433-72.877c-13.873-1.477-26.851,1.298-40.146,3.444c-9.174,1.487-18.447,2.584-27.71,3.064
		c-7.486,0.399-13.635-3.305-18.556-8.874c-8.983-10.201-9.184-24.215-0.199-35.385c8.793-10.99,20.791-16.989,34.076-20.742
		c3.596-1.028,7.228-1.947,11.38-3.055C2127.999,2287.897,2126.313,2281.749,2124.347,2274.683z"/>
	<path fill-rule="evenodd" clip-rule="evenodd" d="M1316.024,2459.393c-1.203-1.597-1.652-2.505-2.376-3.082
		c-19.375-15.083-41.359-22.439-65.773-19.315c-19.151,2.475-33.424,12.857-40.497,31.531c-7.146,18.836-2.799,35.627,10.621,49.889
		c6.777,7.188,15.042,12.967,22.532,19.535c6.509,5.689,13.481,11.04,19.137,17.519c8.509,9.741,8.52,21.301,3.439,32.61
		c-5.136,11.43-14.773,16.529-27.072,16.84c-18.321,0.447-33.698-7.059-47.848-17.838c-2.45-1.856-4.871-3.744-7.93-6.119
		c-3.942,6.497-7.372,12.147-10.476,17.268c0.738,1.578,0.948,2.196,1.303,2.725c0.35,0.52,0.788,1.02,1.287,1.409
		c20.803,17.008,44.599,25.812,71.439,23.726c21.237-1.646,36.914-12.677,44.983-32.87c8.42-21.07,3.738-39.696-11.667-55.948
		c-1.991-2.105-4.029-4.202-6.263-6.008c-6.02-4.842-12.383-9.254-18.192-14.324c-6.028-5.261-11.994-10.71-17.208-16.76
		c-4.532-5.251-6.114-11.908-4.946-18.984c2.589-15.542,13.694-24.307,30.189-23.527c13.221,0.618,25.029,5.489,35.834,12.926
		c2.55,1.758,5.097,3.525,8.301,5.74C1308.728,2470.413,1312.236,2465.124,1316.024,2459.393z"/>
	<path fill-rule="evenodd" clip-rule="evenodd" d="M2236.581,2176.811c-2.127,0.33-3.434,0.341-4.582,0.759
		c-2.416,0.879-4.82,1.827-7.107,3.005c-21.07,10.87-38.549,25.862-50.487,46.476c-15.003,25.902-16.72,53.123-5.301,80.752
		c9.243,22.378,24.715,39.916,44.957,52.981c21.721,14.007,45.359,18.237,70.173,10.054c30.204-9.962,51.365-31.045,67.456-57.734
		c0.76-1.249,0.729-3.006,1.108-4.753c-2.825-2.035-5.381-3.953-8.046-5.709c-2.563-1.677-5.25-3.134-8.145-4.851
		c-1.786,3.095-2.985,5.32-4.361,7.456c-11.021,17.158-24.874,31.202-43.97,39.318c-15.932,6.788-32.052,6.986-47.834,0
		c-23.525-10.361-39.936-28.14-49.588-51.637c-9.604-23.376-5.96-45.517,9.473-65.47c9.813-12.727,22.238-22.28,37.012-28.738
		c2.496-1.097,4.881-2.545,7.876-4.111C2242.12,2188.21,2239.346,2182.53,2236.581,2176.811z"/>
	<path fill-rule="evenodd" clip-rule="evenodd" d="M1889.844,2408.697c-2.154-0.58-3.073-0.999-4.021-1.067
		c-2.247-0.182-4.501-0.341-6.727-0.26c-25.115,0.867-48.103,8.254-68.266,23.326c-19.405,14.523-31.593,33.969-34.697,58.074
		c-3.883,29.955,3.235,57.584,20.832,82.179c16.261,22.639,38.499,34.468,66.548,34.847c27.779,0.379,52.186-9.383,74.773-24.705
		c1.837-1.236,3.893-2.215,5.998-3.403c-4.79-7.267-8.234-12.497-12.017-18.196c-12.987,10.44-26.762,17.158-41.904,21.012
		c-32.969,8.365-61.167-3.863-77.177-33.799c-9.154-17.108-13.397-35.376-11.879-54.869c1.107-14.325,6.268-26.891,16.15-37.282
		c15.422-16.21,35.005-23.418,56.865-25.174c5.002-0.399,10.052-0.06,15.621-0.06c0.189-4.483,0.459-7.615,0.44-10.771
		C1890.363,2415.414,1890.056,2412.249,1889.844,2408.697z"/>
	<path fill-rule="evenodd" clip-rule="evenodd" d="M691.981,2034.062c-23.591-41.035-46.615-81.071-69.888-121.527
		c-6.747,3.962-12.237,7.157-18.606,10.92c9.472,16.669,18.606,32.751,28.098,49.459c-48.475,27.919-96.298,55.46-144.739,83.348
		c4.591,7.797,8.573,14.554,12.892,21.93c48.635-27.889,96.278-55.188,144.64-82.897c9.797,16.77,19.129,32.771,28.848,49.431
		C679.579,2041.109,685.104,2037.964,691.981,2034.062z"/>
	<path fill-rule="evenodd" clip-rule="evenodd" d="M1103.518,2564.231c-25.014-11.119-48.919-21.78-73.19-32.58
		c22.742-51.625,44.961-102.052,67.442-153.109c-8.195-3.612-15.148-6.677-23.133-10.191
		c-25.504,57.875-50.678,115.01-76.142,172.814c32.955,14.242,64.298,28.717,96.543,42.273
		C1098.058,2576.58,1100.493,2571.08,1103.518,2564.231z"/>
	<path fill-rule="evenodd" clip-rule="evenodd" d="M555.376,2164.384c52.079-36.215,103.236-71.789,155.091-107.853
		c-5.31-7.468-9.833-13.854-14.664-20.662c-52.079,36.254-103.021,71.708-154.711,107.693
		C545.884,2150.529,550.185,2156.817,555.376,2164.384z"/>
	<path fill-rule="evenodd" clip-rule="evenodd" d="M1714.286,2452.138c13.376,62.326,26.371,123.134,39.976,184.581
		c8.765-1.966,16.143-3.643,24.517-5.539c-13.306-61.626-26.451-122.376-39.777-184.033
		C1730.396,2448.894,1722.96,2450.381,1714.286,2452.138z"/>
	<path fill-rule="evenodd" clip-rule="evenodd" fill="#FFFFFF" d="M2354.624,1522.139
		c-2.813,184.313-69.521,370.362-205.833,529.771c-123.305,144.188-278.87,236.299-463.832,278.17
		c-31.622,7.168-64.053,10.803-96.113,15.883c-4.751,0.738-9.663,0.887-14.464,0.699c-6.578-0.24-12.706,0.308-18.516,4.001
		c-2.217,1.418-5.511,1.568-8.335,1.577c-17.698,0.14-35.426,0.559-53.099-0.051c-14.409-0.498-28.763-2.324-43.115-3.531
		c-15.391-1.269-30.81-2.217-46.167-3.824c-64.612-6.808-127.471-21.51-188.675-43.171
		c-101.917-36.072-193.66-89.665-275.586-160.247c-11.193-9.662-21.615-19.754-31.616-30.634
		c-6.473-7.067-14.364-13.036-20.876-20.513c-15.441-17.658-32.541-33.928-47.414-52.045
		c-90.854-110.637-149.936-236.467-178.04-376.781c-7.845-39.156-12.472-78.765-14.748-118.692
		c-2.095-36.732-1.776-73.43,1.029-110.044c6.324-82.654,24.075-162.847,53.702-240.325
		c36.483-95.425,88.028-181.896,155.701-258.392c122.869-138.861,274.887-229.061,455.731-270.439
		c38.004-8.7,76.424-14.838,115.339-17.504c19.898-1.356,39.827-2.31,59.765-3.269c15.696-0.758,31.458-0.579,47.06-2.071
		c9.083-0.864,16.759,3.209,25.243,4.179c25.255,2.875,50.568,5.274,75.652,9.202c83.247,12.992,162.593,38.59,238.284,75.571
		c72.787,35.566,139.354,80.458,198.976,135.322c9.533,8.775,18.536,18.491,27.301,27.975c9.441,10.255,19.233,19.8,30.354,27.83
		c10.411,7.526,19.594,16.68,25.842,27.086c17.589,29.306,40.775,54.534,58.683,83.557c17.737,28.803,35.006,57.824,49.899,88.209
		c35.295,72.091,60.239,147.574,74.325,226.67C2349.983,1396.184,2354.435,1446.422,2354.624,1522.139z M951.65,2015.485
		c2.91-2.724,5.262-4.84,7.532-7.057c41.395-40.126,82.754-80.274,124.172-120.37c56.94-55.108,113.888-110.188,170.929-165.187
		c5.15-4.951,7.616-10.073,7.655-17.608c0.215-39.707,33.245-70.53,72.986-68.395c5.407,0.288,9.053-1.06,12.788-4.722
		c28.113-27.439,56.406-54.74,84.6-82.101c1.448-1.417,2.48-3.204,4.322-5.649c-3.5-0.19-5.7-0.42-7.9-0.42
		c-40.571,0-81.156,0.111-121.748-0.109c-6.313-0.039-10.619,1.996-15.072,6.468c-27.685,27.891-71.194,27.801-98.629-0.238
		c-4.507-4.593-8.914-6.219-15.123-6.219c-82.779,0.159-165.562,0.21-248.34,0.06c-58.293-0.129-116.576-0.609-174.855-0.848
		c-1.507-0.02-3.009,0.777-5.491,1.457c4.742,83.806,23.294,164.3,55.055,241.729C839.451,1871.46,888.352,1947.681,951.65,2015.485
		z M749.312,1459.643c3.627,0.344,5.209,0.624,6.772,0.604c26.731-0.156,53.457-0.47,80.198-0.47
		c114.041-0.064,228.093-0.064,342.139,0.076c5.963,0,10.11-1.758,14.323-6.059c27.944-28.503,71.274-28.749,99.409-0.466
		c4.801,4.837,9.587,6.559,16.126,6.525c32.226-0.246,64.447-0.101,96.647-0.156c2.46,0,4.921-0.364,8.488-0.634
		c-1.446-2.154-2.1-3.532-3.104-4.58c-27.089-28.023-54.125-56.082-81.426-83.912c-2.206-2.256-6.009-3.649-9.243-4.043
		c-35.286-4.336-59.481-28.263-63.189-63.669c-0.629-5.888-2.536-10.175-6.548-14.304
		c-48.711-50.132-97.382-100.315-145.918-150.618c-46.964-48.656-93.744-97.497-140.678-146.197
		c-3.053-3.17-6.677-5.795-10.73-9.259c-69.837,74.749-122.182,159.273-157.432,254.31
		C768.581,1308.419,752.875,1382.33,749.312,1459.643z M1566.845,1418.304c2.685-1.897,4.343-2.756,5.611-3.994
		c26.421-25.507,52.732-51.086,79.215-76.529c3.204-3.064,3.402-6.024,3.143-10.257c-0.479-8.265-0.808-16.868,0.9-24.869
		c7.775-36.698,41.434-59.481,78.465-53.691c5.131,0.833,8.983,0.246,13.018-3.677c23.706-23.199,47.781-46.017,71.609-69.09
		c68.703-66.533,137.349-133.135,206.021-199.729c3.883-3.758,7.616-7.686,11.778-11.922c-2.385-2.631-4.082-4.951-6.207-6.818
		c-18.796-16.635-37.033-33.998-56.638-49.649c-83.977-67.042-178.333-113.643-282.333-140.572
		c-37.452-9.688-75.462-16.481-114.012-19.945c-3.344-0.299-6.747-0.034-11.091-0.034c0,12.363,0,23.572,0,34.781
		c0,122.717,0.072,245.432-0.14,368.142c-0.009,8.005,2.178,13.605,7.926,19.384c26.362,26.518,26.163,70.357-0.498,96.588
		c-5.649,5.541-7.507,11.051-7.456,18.623c0.24,40.9,0.079,81.795,0.101,122.69
		C1566.258,1410.831,1566.605,1413.926,1566.845,1418.304z M1481.401,1405.65c0.38-3.048,0.69-4.561,0.69-6.073
		c0.034-39.936-0.05-79.849,0.14-119.786c0.034-5.077-2.136-8.275-5.491-11.614c-28.883-28.833-29.181-71.674-0.534-100.102
		c4.267-4.222,6.025-8.329,5.983-14.29c-0.204-41.219-0.064-82.433-0.064-123.649c0.03-91.133,0.03-182.272,0.03-273.405
		c0.02-3.767,0-7.526,0-12.517c-77.967,2.231-152.561,15.877-225.048,40.976c-89.422,30.953-170.298,76.925-243.25,138.951
		c8.958,9.344,17.108,17.938,25.368,26.432c35.476,36.454,71.045,72.826,106.46,109.345
		c52.914,54.536,105.783,109.121,158.516,163.831c3.979,4.141,7.867,5.416,13.551,4.792c17.237-1.878,33.419,1.736,47.532,12.087
		c22.14,16.205,31.797,38.205,28.837,65.484c-0.604,5.675-0.4,10.257,4.112,14.838c25.335,25.643,50.328,51.672,75.457,77.525
		C1475.827,1400.676,1478.163,1402.656,1481.401,1405.65z M1482.156,2255.128c0-6.867,0-11.67,0-16.471
		c-0.03-33.169-0.115-66.358-0.1-99.537c0.02-98.9,0-197.77,0.244-296.678c0.016-7.575-1.946-13.046-7.485-18.585
		c-26.835-26.842-26.423-70.592,0.769-97.244c4.786-4.72,6.682-9.333,6.607-15.959c-0.324-27.391-0.099-54.751-0.134-82.142
		c0-2.136-0.244-4.271-0.414-7.694c-2.854,2.346-4.856,3.752-6.607,5.44c-22.929,22.168-45.717,44.457-68.78,66.478
		c-4.302,4.093-6.403,8.265-6.198,14.304c0.967,32.062-25.235,67.586-68.28,68.195c-8.245,0.109-13.925,2.865-19.4,8.245
		c-15.59,15.392-31.322,30.604-47.049,45.846c-73.321,71.06-146.712,142.04-219.948,213.189
		c-10.566,10.282-20.427,21.282-31.426,32.801C1148.85,2187.891,1304.391,2247.831,1482.156,2255.128z M1615.728,1543.969
		c2.853,3.514,4.091,5.281,5.578,6.827c25.934,26.891,51.946,53.712,77.799,80.663c3.613,3.772,7.404,5.15,12.686,5.229
		c40.926,0.659,70.871,32.141,69.513,73.037c-0.168,4.661,1.068,7.985,4.193,11.17c19.533,20.052,38.997,40.207,58.503,60.278
		c31.622,32.561,63.263,65.091,94.877,97.673c39.447,40.674,78.835,81.41,118.293,122.095c1.917,1.957,4.082,3.665,6.838,6.08
		c1.927-2.337,3.264-4.123,4.771-5.81c55.947-63.233,100.257-133.806,132.728-211.802c29.906-71.869,47.981-146.662,55.029-224.131
		c0.629-6.837,2.296-13.894-0.619-21.36c-3.384,0-6.568,0-9.772,0c-128.794,0.03-257.598,0.059-386.413-0.04
		c-6.129-0.011-10.63,1.446-15.162,6.099c-27.659,28.327-71.68,28.258-99.298-0.14c-4.243-4.352-8.364-6.028-14.274-5.989
		c-35.095,0.21-70.201,0.101-105.309,0.12C1623.143,1543.969,1620.617,1543.969,1615.728,1543.969z M1566.297,2252.483
		c87.261-7.297,168.98-28.688,247.128-63.724c69.124-31.024,132.148-71.528,189.354-122.019c-2.197-2.634-3.523-4.411-5.08-5.997
		c-57.706-59.73-115.42-119.472-173.184-179.152c-32.461-33.539-65.081-66.938-97.423-100.597c-3.652-3.783-7.097-5.569-12.467-5.62
		c-43.171-0.369-72.597-30.673-71.688-73.774c0.09-4.921-1.088-8.454-4.523-11.988c-21.648-22.081-43.101-44.35-64.629-66.519
		c-1.678-1.717-3.665-3.134-6.668-5.67c-0.311,4.262-0.69,7.067-0.699,9.872c-0.061,27.36,0.148,54.729-0.159,82.1
		c-0.101,7.298,2.086,12.428,7.364,17.727c26.982,27.021,26.891,70.343-0.198,97.273c-5.351,5.311-7.286,10.671-7.238,17.848
		c0.231,36.722,0.171,73.425,0.171,110.139c0,95.295-0.04,190.621-0.06,285.957
		C1566.297,2242.46,1566.297,2246.573,1566.297,2252.483z M2093.741,1027.179c-3.853,3.573-6.707,6.079-9.431,8.729
		c-42.793,41.468-85.544,82.978-128.337,124.432c-52.264,50.647-104.559,101.296-156.942,151.828
		c-4.361,4.236-6.589,8.749-7.387,14.978c-4.043,31.551-29.717,56.042-61.276,58.696c-5.93,0.515-10.232,2.751-14.326,6.763
		c-20.482,20.049-41.144,39.947-61.665,59.951c-1.719,1.652-3.017,3.663-5.432,6.643c4.612,0.235,7.726,0.514,10.84,0.514
		c23.518,0.054,47.045-0.114,70.562,0.174c6.308,0.07,10.671-1.966,15.133-6.492c27.908-28.279,71.699-28.174,99.348,0.378
		c4.552,4.738,9.064,6.081,15.173,6.061c42.212-0.156,84.396-0.066,126.579-0.066c86.979,0.011,173.951,0.05,260.911,0.011
		c3.134,0,6.249-0.389,10.901-0.715C2248.278,1297.819,2193.79,1154.826,2093.741,1027.179z"/>
	<path fill-rule="evenodd" clip-rule="evenodd" fill="#FFFFFF" d="M790.836,823.256c-8.784,10.756-18.791,20.139-29.641,28.907
		c-15.413,12.438-32.975,15.189-51.701,14.479c-21.207-0.814-41.485-5.136-59.901-17.743c-0.729,1.736-1.482,2.785-1.577,3.873
		c-2.72,32.42-25.778,64.058-67.127,72.638c-20.567,4.256-39.467,2.075-56.776-10.965c-10.506-7.912-21.869-14.694-32.74-21.916
		c-7.831,6.595-29.138,42.863-34.022,57.994c61.092,31.833,122.316,63.739,185.326,96.56c-3.604,1.745-5.346,2.844-7.252,3.467
		c-12.531,4.132-25.168,7.901-37.59,12.333c-5.656,2.021-10.241,1.434-15.497-1.356c-32.994-17.479-66.149-34.657-99.258-51.921
		c-13.121-6.842-26.272-13.661-39.424-20.452c-1.661-0.85-3.458-1.437-5.749-2.376c-2.261,3.897-3.699,8.1-6.523,10.906
		c-5.96,5.939-9.304,13.101-12.072,20.771c-2.731,7.567-5.84,14.994-8.706,22.52c-3.179,8.354-6.288,16.753-9.876,26.356
		c6.772-0.919,12.342-1.728,17.922-2.401c14.857-1.795,29.566-1.093,44.024,2.98c22.889,6.439,39.449,25.309,34.637,55.434
		c-0.285,1.831-0.291,3.708-0.455,5.824c9.223,1.968,17.703-0.428,26.009-2.399c25.977-6.159,51.821-12.857,77.742-19.241
		c7.059-1.742,14.2-3.098,22.084-4.8c-0.772,5.53-4.387,6.708-7.326,8.049c-12.288,5.62-24.586,11.259-37.078,16.386
		c-32.195,13.216-65.045,24.529-99.297,31.132c-9.743,1.882-19.739,2.546-29.65,3.389c-3.48,0.305-7.128-0.174-10.557-0.957
		c-9.118-2.088-12.712-6.939-12.137-15.698c0.609-9.383,4.95-14.083,14.279-15.137c4.138-0.459,8.304-0.498,12.296-0.724
		c5.152-13.395-0.788-29.13-14.063-37.596c-8.863-5.654-18.755-8.48-29.112-9.467c-4.756-0.458-9.592-0.081-15.031-0.081
		c-6.054,15.667-12.573,31.023-17.858,46.8c-3.219,9.643-8.449,15.786-18.191,19.101c-9.338,3.179-18.197,7.795-29.601,12.802
		c1.751-5.251,2.674-8.426,3.853-11.505c14.109-36.963,28.329-73.895,42.303-110.908c1.552-4.083,1.482-8.734,2.705-12.981
		c1.108-3.862,2.576-7.736,4.562-11.214c2.176-3.819,5.625-6.933,7.681-10.811c12.682-23.876,25.293-47.796,37.536-71.902
		c4.308-8.485,7.017-17.792,11.354-26.272c4.123-8.046,6.01-17.764,15.447-22.425c2.021-0.998,3.084-4.023,4.512-6.163
		c13.92-20.902,27.704-41.904,41.789-62.705c4.776-7.043,7.965-14.499,9.688-22.805c0.618-3.003,2.061-6.268,4.122-8.479
		c26.118-28.009,52.469-55.803,78.656-83.756c16.521-17.623,32.585-35.675,49.391-53.038c9.912-10.252,18.366-21.855,30.279-30.32
		c11.463-8.15,21.895-17.742,32.834-26.636c6.937-5.64,13.974-11.145,21.85-17.404c-24.64-12.571-49.065-19.968-75.88-16.684
		c-1.588,0.19-3.134,0.724-4.683,1.163c-24.031,6.772-32.955,29.29-18.97,49.839c4.582,6.718,11.578,11.837,17.667,17.477
		c2.217,2.046,4.996,3.464,7.521,5.181c-0.185,0.668-0.373,1.353-0.554,2.021c-1.927,0.369-3.968,1.348-5.76,1.018
		c-16.015-2.994-31.087-8.455-44.029-18.626c-25.513-20.072-23.446-52.069,4.381-68.878c15.917-9.598,33.22-11.918,51.217-8.505
		c13.884,2.62,27.914,5.082,41.305,9.397c13.404,4.318,26.077,10.855,40.176,16.889c9.757-7.714,20.068-15.816,30.324-23.991
		c7.202-5.749,13.809-12.397,21.545-17.273c33.209-20.966,66.904-41.188,100.118-62.157c29.695-18.755,62.141-31.937,93.553-47.228
		c7.501-3.649,15.128-9.084,22.914-9.483c7.786-0.399,15.85,4.433,23.765,7.048c6.081,2.016,12.119,4.157,20.194,6.937
		c-13.945,9.114-28.423,13.391-41.664,21.221c29.64,62.925,59.067,125.407,89.112,189.2c-3.419-0.515-5.541-0.523-7.448-1.174
		c-12.492-4.231-24.878-8.773-37.42-12.856c-5.585-1.817-9.214-4.836-11.6-10.417c-4.926-11.483-10.58-22.669-16.375-34.93
		c-1.407,2.584-2.32,4.172-3.143,5.793c-12.902,25.378-34.104,38.879-61.863,42.049c-28.149,3.208-54.399-2.985-78.102-18.727
		c-5.271-3.503-9.861-8.021-15.9-13.017c3.593-1.661,5.74-2.654,7.896-3.649c9.992-4.566,16.331-12.417,19.594-22.683
		c3.523-11.13,0.354-22.459-9.322-29.262c-5.915-4.157-13.117-6.539-19.895-9.372c-3.993-1.668-7.431,0.543-10.795,2.601
		c-9.612,5.858-19.753,10.974-28.847,17.533c-15.777,11.359-30.914,23.586-46.915,35.908
		c43.092,54.616,85.639,108.551,128.192,162.488c-0.38,0.665-0.766,1.317-1.16,1.982c-7.829-0.83-15.671-1.543-23.497-2.5
		c-7.971-0.959-15.895-2.497-23.901-3.15c-5.01-0.409-8.109-2.675-11.094-6.483c-31.023-39.522-62.196-78.924-93.339-118.348
		c-2.161-2.726-4.432-5.36-7.146-8.639c-7.716,5.944-14.837,11.762-22.324,17.063c-4.373,3.105-9.358,5.346-14.024,8.021
		c-1.926,1.107-4.104,2.036-5.58,3.587c-9.973,10.487-19.8,21.113-30.483,32.586c19.489,18.172,38.678,36.069,58.288,54.356
		c-2.295,2.746-4.012,4.98-5.91,7.026c-17.961,19.38-35.879,38.775-53.966,58.03c-8.351,8.888-11.209,19.199-9.522,31.098
		c2.236,15.83,14.25,27.226,30.155,29.206c21.551,2.675,37.96-7.736,53.236-20.606c16.529-13.915,23.477-32.596,24.581-53.738
		c0.215-4.141,0.025-8.293,0.025-12.151c6.414-2.038,28.787-1.219,37.926,1.371c-0.419,6.978-0.385,14.329-1.423,21.521
		c-2.181,15.143-8.275,29.007-15.198,42.512C792.866,820.416,791.854,821.833,790.836,823.256z M627.548,824.43
		c-9.512-24.281-2.495-43.646,12.492-61.144c4.183-4.876,8.639-9.523,12.992-14.259c8.885-9.657,17.782-19.294,26.985-29.281
		c-10.84-10.032-21.081-19.519-31.646-29.301c-13.87,14.793-26.826,28.632-39.793,42.452c-9.897,10.56-20.144,20.832-29.625,31.747
		c-9.377,10.806-18.572,21.864-26.837,33.523c-11.872,16.786-22.837,34.223-34.137,51.401c-0.174,0.269,0.36,1.003,0.789,2.086
		c32.182-6.179,64.696-11.214,96.858-17.907c-0.589-4.921-1.028-8.629-1.568-13.186C618.59,821.864,622.183,822.896,627.548,824.43z
		 M914.874,591.604c33.489,10.358,59.191-0.344,73.844-30.064c3.688-7.482,6.344-15.467,9.652-23.138
		c2.227-5.125,4.783-10.096,7.92-16.675c-9.951-21.12-20.74-44.04-31.481-66.832c-9.953,3.285-19.056,6.263-28.113,9.318
		c-1.208,0.403-2.292,1.183-3.38,1.856c-19.679,12.257-39.357,24.505-59.012,36.813c-1.658,1.027-3.089,2.44-5.421,4.326
		c22.305,0.914,41.384,6.179,50.882,27.105C939.813,556.404,931.244,574.871,914.874,591.604z M521.662,868.329
		c1.602,1.948,1.912,2.571,2.416,2.905c8.806,5.919,17.608,11.834,26.468,17.684c6.159,4.071,12.178,8.465,18.66,11.963
		c13.076,7.046,27.131,5.709,36.944-2.944c11.748-10.333,16.728-31.677,10.73-47.564
		C585.621,856.271,554.247,862.191,521.662,868.329z"/>
	<path fill-rule="evenodd" clip-rule="evenodd" fill="#FFFFFF" d="M2614.659,1125.683c-5.649-13.474-11.319-26.966-17.389-41.379
		c-64.441,26.606-128.225,52.939-193.516,79.894c0.809-3.589,1.038-5.684,1.776-7.566c4.602-11.669,9.662-23.177,13.834-34.987
		c2.387-6.651,6.26-10.47,12.818-13.106c34.587-13.969,69.043-28.333,103.539-42.581c14.834-6.12,29.646-12.298,45.378-18.821
		c-3.134-9.353-5.342-18.699-9.354-27.215c-6.657-14.214-14.475-27.903-22.238-42.623c-61.438,33.279-122.147,66.135-184.333,99.814
		c0.458-3.928,0.408-6.338,1.028-8.555c3.563-12.707,7.455-25.308,10.82-38.051c1.367-5.105,4.071-8.234,8.713-10.669
		c16.53-8.664,32.881-17.683,49.281-26.602c2.793-1.527,5.528-3.168,9.352-5.365c-12.536-18.67-24.793-36.933-37.321-55.587
		c-6.198,3.602-11.608,7.018-17.278,9.946c-8.166,4.208-16.291,1.862-20.113-6.593c-2.127-4.806-3.713-10.736-2.994-15.786
		c1.795-12.347,4.552-24.625,7.915-36.643c2.376-8.5,7.954-15.397,15.053-20.823c10.012-7.667,16.151-6.803,23.187,3.609
		c14.225,21.076,28.31,42.262,42.452,63.399c6.978,10.42,13.945,20.856,21.042,31.483c-2.506,4.121-4.82,7.944-7.137,11.768
		c20.863-8.563,40.107-20.034,60.32-30.505c-6.299-12.033-10.051-24.125-17.51-34.786c-18.226-26.146-35.334-53.073-53.331-79.385
		c-4.271-6.232-10.341-11.245-15.502-16.909c-1.687-1.851-3.953-3.763-4.472-5.989c-3.024-13.155-14.184-20.223-21.131-31.163
		c-53.851,44.792-106.736,88.796-160.875,133.845c-0.411-3.02-0.85-4.428-0.76-5.785c1.067-13.795,2.486-27.575,3.203-41.39
		c0.28-5.659,2.366-9.537,6.648-13.071c21.931-17.988,43.66-36.189,65.42-54.331c2.228-1.851,4.354-3.769,7.428-6.414
		c-14.574-13.759-28.887-27.269-43.85-41.393c-1.568,4.042-2.666,7.012-3.863,9.922c-12.777,30.609-44.848,34.392-66.499,19.507
		c-10.342-7.107-17.966-16.574-22.957-28.042c-12.038-27.601-9.992-55.704-3.425-84.32c6.968,1.261,7.267,5.625,7.428,10.851
		c0.379,11.198,0.649,22.523,2.484,33.528c1.089,6.422,4.434,12.796,7.984,18.441c9.324,14.913,23.948,20.776,38.7,16.384
		c14.854-4.421,25.255-18.411,25.434-34.991c0.041-5.071-1.356-10.146-2.086-15.228c-0.279-2.045-0.548-4.107-1.048-7.854
		c3.243,1.687,5.32,2.281,6.737,3.599c22.568,21.125,45.008,42.396,67.587,63.524c3.003,2.805,3.724,5.584,2.396,9.447
		c-1.767,5.111-3.044,10.396-3.923,16.25c14.234-10.046,27.24-21.511,41.205-32.949c-2.896-3.758-6.13-6.668-7.756-10.297
		c-9.373-20.768-28.758-32.25-43.93-47.499c-20.433-20.531-42.104-39.841-63.105-59.829c-7.834-7.457-16.35-14.09-23.376-22.55
		c-4.513-5.43-11.899-8.444-17.898-12.691c-6.817-4.846-13.485-9.867-21.341-15.621c-41.574,55.758-82.08,111.955-123.403,167.547
		c-0.699-0.099-1.388-0.194-2.077-0.299c-1.518-8.315-3.056-16.61-4.471-24.934c-1.09-6.338-1.487-12.841-3.075-19.045
		c-1.588-6.234-0.129-10.906,3.653-16.006c30.504-41.129,60.758-82.444,91.053-123.724c1.518-2.05,2.965-4.152,4.762-6.646
		c-17.598-18.172-39.727-29.227-62.076-42.418c-35.496,59.795-70.881,119.382-106.895,180.041c-1.447-2.941-2.524-4.498-2.985-6.22
		c-3.752-13.644-7.227-27.363-11.079-40.974c-1.287-4.448-0.459-8.005,1.917-11.814c5.648-8.992,10.988-18.196,16.351-27.35
		c1.258-2.141,2.205-4.457,3.353-6.788c-1.178-0.333-1.796-0.719-2.354-0.624c-32.711,5.731-58.165-6.693-77.448-32.359
		c-17.149-22.848-25.805-48.762-23.688-77.708c0.182-2.242,0.45-4.492,0.889-6.688c0.319-1.513,1.06-2.955,1.938-5.297
		c8.724,7.208,18.307,9.897,29.037,8.874c15.851-1.511,25.941-12.112,26.142-27.962c0.02-2.566-0.159-5.161-0.5-7.702
		c-1.387-10.135-5.13-18.167-16.28-21.282c-6.428-1.801-12.456-5.204-18.486-8.259c-2.424-1.242-5.439-3.07-6.338-5.345
		c-4.901-12.492-9.243-25.199-14.373-39.498c3.942,1.297,6.288,1.851,8.443,2.82c37.623,16.789,75.004,34.083,112.854,50.298
		c27.351,11.709,51.356,29.061,77.218,43.271c13.745,7.566,27.801,14.743,40.836,23.411c17.978,11.904,35.088,25.05,52.573,37.671
		c2.586,1.858,5.222,3.673,7.728,5.446c0.777-0.59,1.655-0.938,1.636-1.263c-0.657-27.833-3.752-55.224-15.321-80.977
		c-5.052-11.284-11.279-21.696-22.618-28.073c-1.637-0.914-3.324-3.358-3.364-5.146c-0.31-10.535-0.159-21.081-0.159-32.54
		c2.805,0.744,5.011,0.954,6.837,1.872c13.414,6.793,23.118,17.304,29.666,30.693c8.346,17.021,11.829,35.361,13.465,54.007
		c1.826,20.513,2.994,41.09,4.242,61.652c0.44,7.377,2.115,13.417,9.304,17.493c30.584,17.39,53.651,43.741,79.194,67.137
		c19.904,18.262,39.727,36.659,59.172,55.399c6.908,6.643,12.707,14.454,18.866,21.815c12.806,15.322,25.442,30.794,38.39,45.995
		c4.331,5.102,9.752,9.284,14.063,14.398c6.987,8.281,13.984,16.641,20.054,25.59c19.854,29.295,39.338,58.861,58.893,88.368
		c3.853,5.818,7.605,11.729,10.959,17.857c13.896,25.423,26.972,51.32,41.574,76.33c20.933,35.89,33.189,75.487,49.99,113.123
		c0.957,2.167,1.496,5.261,0.698,7.358c-4.932,13.116-10.321,26.056-15.583,39.062
		C2616.036,1125.588,2615.348,1125.633,2614.659,1125.683z M1935.212,517.117c3.033,9.657,6.888,17.678,12.606,24.715
		c9.363,11.508,21.343,18.71,36.254,19.519c7.956,0.435,15.991-0.764,23.977-1.378c11.549-0.897,22.35-8.388,34.517-2.938
		c13.586-22.977,26.781-45.257,39.897-67.408c-21.321-16.658-69.723-41.477-96.913-49.957
		C2016.792,487.596,1981.287,526.324,1935.212,517.117z"/>
	<path fill-rule="evenodd" clip-rule="evenodd" fill="#FFFFFF" d="M1328.796,553.934c-1.96-1.002-4.063-1.832-5.883-3.018
		c-36.29-23.498-71.995-47.713-101.83-79.421c-6.377-6.783-12.263-14.054-17.977-21.411c-2.326-2.983-3.984-6.663-5.215-10.266
		c-3.589-10.465,2.33-19.753,13.194-21.011c4.667-0.534,8.051,2.011,10.716,5.416c3.333,4.276,6.349,8.804,9.438,13.121
		c14.139-3.939,21.944-16.85,20.208-32.971c-1.518-13.999-7.347-28.786-16.974-42.431c-8.675,1.886-17.733,3.802-26.772,5.814
		c-6.279,1.393-12.472,3.274-18.815,4.252c-3.258,0.509-7.432,0.629-10.032-0.973c-10.401-6.414-20.357-13.551-30.433-20.493
		c-0.694-0.479-1.004-1.501-2.066-3.179c11.368-2.675,22.168-5.31,33.024-7.755c34.82-7.831,69.547-16.156,104.528-23.163
		c19.45-3.898,39.349-5.625,59.077-8.195c8.24-1.073,16.551-1.797,24.709-2.675c0.176-0.943,0.59-1.821,0.366-2.062
		c-18.637-19.314-38.35-37.316-63.29-48.292c-7.297-3.209-15.147-5.241-22.895-7.342c-2.994-0.823-6.777-1.397-9.501-0.299
		c-7.942,3.219-12.539-0.654-17.199-6.174c-5.34-6.302-11.175-12.202-17.443-18.984c15.572-6.922,30.24-6.883,44.384-1.607
		c10.431,3.893,21.031,8.785,29.74,15.531c16.495,12.792,31.763,27.181,47.409,41.056c6.249,5.56,12.911,10.919,18.002,17.453
		c6.987,8.944,15.682,8.385,25.114,7.197c10.312-1.292,20.671-3.144,30.998-3.274c30.604-0.35,61.257,1.078,91.813-0.179
		c32.052-1.318,63.373,3.882,94.976,7.012c12.807,1.267,25.573,4.146,38.35,4.052c26.021-0.194,50.188,9.168,75.382,13.031
		c11.421,1.757,22.66,4.716,34.018,6.888c5.7,1.088,9.902,3.548,13.078,8.669c6.408,10.321,13.395,20.292,19.144,32.236
		c-14.194-2.745-28.397-5.5-43.819-8.484c-14.225,68.264-28.299,135.696-42.692,204.731c-2.575-2.742-4.232-4.079-5.38-5.76
		c-7.257-10.646-14.104-21.586-21.711-31.962c-3.813-5.197-4.502-10.188-3.214-16.207c5.489-25.462,10.751-50.977,16.091-76.464
		c5.34-25.498,10.69-50.992,16.012-76.5c0.31-1.548,0.338-3.155,0.578-5.521c-23.577-7.761-47.854-10.142-73.547-12.422
		c-7.526,69.232-14.991,137.998-22.687,208.927c-3.754-4.102-5.93-6.302-7.937-8.698c-7.806-9.428-15.381-19.035-23.387-28.288
		c-3.465-3.993-4.672-8.091-3.982-13.23c1.178-8.924,1.985-17.902,2.934-26.865c0.371-3.444,0.699-6.889,1.208-11.919
		c-13.924,9.632-28.247,12.092-43.311,11.768c-23.497-0.514-42.931-10.031-59.211-26.471c-4.993-5.01-8.845-11.236-14.186-15.791
		c-12.357-10.526-14.941-39.658-4.681-55.928c7.143-11.345,18.296-15.901,30.948-17.035c14.91-1.333,28.574,3.553,41.929,9.478
		c0.589,0.255,1.238,0.475,1.688,0.899c8.573,8.579,17.089,17.188,26.092,26.262c-4.353,2.984-7.057,0.555-9.771-0.449
		c-11.24-4.112-22.549-7.187-34.788-6.862c-20.551,0.554-35.41,19.689-36.268,38.419c-0.31,6.704,2.826,11.544,9.369,14.239
		c8.983,3.713,18.305,3.847,27.569,2.571c11.519-1.593,22.549-5.141,32.63-11.221c12.127-7.301,24.345-14.438,37.72-22.344
		c2.466-22.659,5.071-46.515,7.758-71.284c-11.799-1.188-22.201-4.856-33.58-4.801c-34.127,0.144-68.274-0.899-102.393-0.669
		c-22.789,0.165-45.611,0.185-68.25,3.563c-1.836,0.27-3.648,0.864-6.249,1.497c7.267,68.934,14.529,137.583,21.931,207.895
		c-3.305-1.971-5.231-2.85-6.853-4.113c-10.412-8.12-20.583-16.565-31.204-24.391c-5.215-3.848-6.967-8.539-7.521-14.718
		c-1.636-18.811-3.789-37.59-5.885-57.625c-2.235,1.697-3.458,2.561-4.636,3.509c-23.647,19.045-50.308,25.025-79.724,17.832
		c-6.793-1.661-12.866-3.084-18.92,1.772c-1.906,1.532-4.621,2.061-7.926,3.453c5.08,8.236,11.016,15.212,17.592,21.586
		c18.047,17.463,36.295,34.732,54.457,52.1c2.489,2.394,4.904,4.881,7.351,7.326
		C1329.794,552.842,1329.296,553.385,1328.796,553.934z M1359.953,424.097c-3.064-28.743-5.922-55.299-8.793-82.199
		c-8.664,0.419-15.925,0.804-23.222,1.132c-4.681,0.215-9.498-0.29-14.044,0.664c-17.608,3.708-35.132,7.841-52.668,11.894
		c-3.624,0.833-7.174,2.021-11.625,3.288c2.86,3.654,5.001,6.409,7.177,9.144c8.634,10.9,16.101,22.519,21.211,35.495
		c6.367,16.131,8.759,32.292-0.156,48.401c-0.229,0.38,0.226,1.124,0.46,2.097c13.91-1.812,26.855-6.623,38.18-14.669
		c11.394-8.1,21.929-17.438,33.083-26.45C1352.552,416.112,1355.507,419.301,1359.953,424.097z"/>
	<path fill-rule="evenodd" clip-rule="evenodd" fill="#FFFFFF" d="M2462.438,1797.306c59.73,21.59,118.013,42.69,177.595,64.232
		c-3.333,7.795-6.308,14.714-9.822,22.838c-48.94-18.217-97.23-36.205-146.871-54.7c40.775,38.239,80.393,75.382,120.381,112.854
		c-2.706,6.198-5.102,11.688-7.957,18.266c-54.7-4.96-108.951-9.912-161.862-14.723c45.088,22.668,91.572,46.045,139.146,69.951
		c-3.254,7.526-6.2,14.363-9.653,22.359c-56.316-29.226-111.565-57.895-167.624-86.99c2.197-5.36,4.084-10.043,6.061-14.664
		c2.016-4.672,4.183-9.303,6.598-14.673c26.581,1.946,52.834,3.665,79.084,5.801c26.253,2.145,52.466,4.709,80.464,5.808
		c-1.848-0.977-4.022-1.607-5.519-2.983c-27.152-24.704-54.272-49.431-81.283-74.264c-8.994-8.267-17.547-17.04-26.57-25.296
		c-3.564-3.272-4.803-6.157-2.426-10.82C2455.761,1813.206,2458.705,1805.76,2462.438,1797.306z"/>
	<path fill-rule="evenodd" clip-rule="evenodd" fill="#FFFFFF" d="M539.664,1664.179c2.248,8.625,4.124,16.012,6.129,23.377
		c1.199,4.402-2.271,6.447-4.546,8.913c-17.418,18.986-34.767,38.04-52.489,56.747c-20.771,21.97-41.898,43.59-61.911,64.343
		c46-12.737,93.658-25.942,141.296-39.149c5.616,6.769,4.702,14.694,8.6,22.528c-30.877,9.434-61.397,16.602-91.586,24.875
		c-30.001,8.256-60.155,15.941-91.224,24.116c-2.112-7.495-4.038-14.214-5.87-20.951c-1.158-4.242,2.072-6.459,4.432-9.014
		c14.04-15.084,28.02-30.246,42.217-45.188c25.26-26.552,50.678-53.014,75.168-78.596c-47.274,12.916-96.045,26.261-145.135,39.687
		c-4.462-7.367-5.524-14.832-6.847-23.217C418.357,1696.519,478.477,1680.498,539.664,1664.179z"/>
	<path fill-rule="evenodd" clip-rule="evenodd" fill="#FFFFFF" d="M823.017,2388.693c32.116-39.289,63.413-77.599,95.461-116.796
		c6.417,5.369,11.983,10.031,18.59,15.551c-40.282,48.391-80.143,96.264-120.708,144.976c-5.969-4.96-11.385-9.363-16.721-13.876
		c-4.027-3.392-2.095-7.854-1.602-11.787c2.387-18.816,4.967-37.612,7.626-56.406c3.708-26.124,7.392-52.227,11.415-78.289
		c1.711-11.1,4.261-22.068,6.652-34.266c-32.93,40.086-65.155,79.314-97.941,119.211c-6.507-5.42-12.103-10.07-18.537-15.401
		c40.377-48.551,80.244-96.423,120.744-145.104c6.503,5.44,12.712,10.012,18.088,15.452c1.826,1.826,2.444,5.849,2.095,8.715
		c-2.729,22.02-5.785,43.998-8.824,65.968c-3.302,23.886-6.512,47.804-10.126,71.639
		C827.742,2368.08,825.281,2377.754,823.017,2388.693z"/>
	<path fill-rule="evenodd" clip-rule="evenodd" fill="#FFFFFF" d="M688.162,2287.129c-49.308,1.767-104.683-54.41-77.691-116.396
		c15.78-36.214,44.144-59.8,82.773-67.587c62.521-12.606,103.536,42.553,101.124,84.127c-0.777,13.435-4.082,26.172-10.854,37.671
		c-18.296,31.124-44.419,52.183-80.069,60.349C698.473,2286.419,693.27,2286.54,688.162,2287.129z M628.063,2208.242
		c-0.149,34.887,30.65,60.67,64.243,53.423c32.82-7.086,56.627-26.571,71.305-56.705c6.498-13.348,8.564-27.551,3.842-42.114
		c-9.143-28.196-37.521-43.609-66.852-35.675c-28.414,7.677-49.669,25.054-64.184,50.459
		C630.967,2187.183,627.573,2197.612,628.063,2208.242z"/>
	<path fill-rule="evenodd" clip-rule="evenodd" fill="#FFFFFF" d="M2308.11,2082.463c5.561-6.646,10.459-12.507,16.279-19.465
		c48.122,40.407,95.806,80.453,144.316,121.139c-2.944,3.664-5.461,6.838-8.024,9.963c-2.446,2.954-4.962,5.828-8.175,9.602
		c-22.551-18.835-44.63-37.291-67.408-56.308c-19.294,22.929-38.102,45.289-57.675,68.564c22.269,18.827,44.27,37.403,67.137,56.728
		c-5.419,6.528-10.429,12.567-16.021,19.306c-48.231-40.477-95.764-80.384-143.617-120.531c3.234-7.924,9.783-12.756,15.114-20.192
		c20.242,16.96,39.866,33.36,60.329,50.468c19.344-23.028,38.28-45.577,57.645-68.646
		C2347.797,2116.001,2328.243,2099.462,2308.11,2082.463z"/>
	<path fill-rule="evenodd" clip-rule="evenodd" fill="#FFFFFF" d="M1448.592,2473.489c18.87-2.815,36.388-4.792,54.086-3.076
		c8.608,0.828,17.314,1.828,25.607,4.144c20.792,5.779,33.889,20.862,35.736,39.737c2.304,23.857-6.749,41.733-26.511,52.395
		c-2.197,1.188-4.473,2.256-7.738,3.912c17.359,9.443,22.749,25.224,26.521,42.193c3.204,14.433,7.157,28.687,10.752,43.021
		c0.369,1.479,0.419,3.045,0.708,5.11c-8.125,0-15.752,0-24.556,0c-1.605-4.512-3.652-9.162-4.851-13.984
		c-2.766-10.909-5.101-21.92-7.655-32.889c-0.649-2.795-1.379-5.61-2.128-8.395c-4.312-15.604-13.963-25.154-30.583-26.184
		c-7.955-0.459-15.961-0.069-24.875-0.069c-2.34,26.093-1.272,52.405-2.285,79.165c-8.116,2.087-15.925,1.279-25.084,0.329
		C1446.7,2597.351,1447.633,2536.044,1448.592,2473.489z M1473.637,2558.572c11.498,1.657,22.948,2.155,34.355,0.03
		c4.663-0.878,9.453-2.236,13.646-4.393c12.437-6.368,17.857-17.317,17.578-30.854c-0.27-13.684-6.448-24.225-19.744-29.167
		c-14.743-5.488-29.876-5.818-45.836-1.906C1473.637,2514.423,1473.637,2536.163,1473.637,2558.572z"/>
	<path fill-rule="evenodd" clip-rule="evenodd" fill="#FFFFFF" d="M465.316,2021.385c-4.059-9.213-7.263-16.49-10.8-24.504
		c15.397-14.096,30.514-27.96,46.056-42.194c-8.729-20.113-17.279-39.817-26.018-59.99c-7.292,0.539-14.29,0.939-21.271,1.558
		c-10.247,0.928-20.488,1.996-30.729,3.064c-9.788,1.028-9.813,1.067-13.69-7.835c-2.026-4.652-3.928-9.354-6.244-14.854
		c6.509-0.887,11.824-1.865,17.194-2.296c35.619-2.865,71.235-5.58,106.84-8.454c20.527-1.678,41.024-3.774,61.567-5.262
		c14.643-1.068,12.151-1.856,17.698,10.551c2.226,4.982,4.292,10.043,6.867,16.102
		C564.11,1931.529,515.398,1975.84,465.316,2021.385z M495.131,1891.713c7.491,17.188,14.458,33.148,21.721,49.809
		c22.409-19.935,43.664-38.868,65.286-58.104C553.319,1886.172,525.086,1888.848,495.131,1891.713z"/>
	<path fill-rule="evenodd" clip-rule="evenodd" fill="#FFFFFF" d="M838.148,2448.863c51.642-43.51,101.769-85.704,152.462-128.416
		c8.424,5.041,16.619,9.973,25.803,15.473c-14.06,64.452-28.079,128.685-42.103,192.946c-7.691-1.887-14.34-5.639-23.228-12.995
		c4.191-19.384,8.463-39.128,12.942-59.87c-18.511-11.23-37.089-22.48-56.134-34.039c-15.83,13.447-31.232,26.521-47.353,40.218
		C853.65,2458.076,846.843,2454.044,838.148,2448.863z M923.043,2407.698c15.76,9.533,30.698,18.547,46.54,28.158
		c6.643-29.057,12.981-56.727,19.515-85.264C966.938,2369.738,945.427,2388.345,923.043,2407.698z"/>
	<path fill-rule="evenodd" clip-rule="evenodd" fill="#FFFFFF" d="M2332.694,2048.855c17.998-28.548,35.795-56.767,54.211-85.933
		c6.198,3.872,11.739,7.346,18.008,11.268c-13.756,21.911-27.061,43.102-40.965,65.261c16.35,10.303,32.25,20.323,49.148,30.983
		c13.018-20.472,25.705-40.425,39.029-61.386c5.97,3.702,11.5,7.136,17.709,11.027c-13.168,20.993-25.755,41.076-38.689,61.698
		c18.834,11.898,37.001,23.388,56.217,35.516c14.404-22.719,28.638-45.107,43.439-68.395c6.129,3.741,11.67,7.146,18.058,11.08
		c-19.056,30.223-37.512,59.521-55.888,88.676C2485.476,2146.487,2351.621,2063.109,2332.694,2048.855z"/>
	<path fill-rule="evenodd" clip-rule="evenodd" fill="#FFFFFF" d="M2570.251,1778.828c21.55,5.721,42.233,11.22,64.122,17.038
		c7.107-26.44,13.954-52.014,21.062-78.485c7.057,1.896,13.135,3.515,20.493,5.47c-9.083,34.357-17.958,68.036-27.191,102.932
		c-61.099-16.139-121.239-32.03-182.546-48.221c8.814-33.29,17.378-65.721,26.202-98.989c7.118,1.887,13.196,3.494,20.513,5.44
		c-6.479,24.704-12.777,48.83-19.384,74.104c18.017,5.91,36.433,9.842,55.716,15.153c7.487-22.839,11.79-46.455,19.565-70.122
		c6.777,1.807,12.808,3.444,19.764,5.32C2582.407,1732.154,2576.449,1755.013,2570.251,1778.828z"/>
	<path fill-rule="evenodd" clip-rule="evenodd" fill="#FFFFFF" d="M1985.511,2356.242c3.193,6.698,5.899,12.368,9.151,19.175
		c-23.496,11.01-46.324,21.682-69.801,32.7c8.295,17.848,16.21,34.886,24.466,52.653c22.389-10.311,43.858-20.202,66.139-30.454
		c3.073,6.55,5.72,12.259,8.813,18.916c-22.099,10.351-43.509,20.373-65.979,30.904c9.352,20.132,18.477,39.747,27.969,60.269
		c24.794-11.43,48.641-22.439,73.534-33.937c3.017,6.229,5.851,12.106,9.226,19.114c-32.292,15.033-63.924,29.727-96.635,44.947
		c-26.601-57.234-52.813-113.643-79.584-171.195C1923.963,2384.86,1954.357,2370.726,1985.511,2356.242z"/>
	<path fill-rule="evenodd" clip-rule="evenodd" fill="#FFFFFF" d="M1419.006,2569.093c-24.495-3.324-47.627-6.428-70.637-9.553
		c-3.084,6.539-9.453,48.063-10.071,65.66c25.853,3.643,51.81,7.327,78.211,11.08c1.518,7.117,0.411,13.785-2.39,21.122
		c-34.611-4.801-68.868-9.563-104.534-14.514c8.645-62.486,17.183-124.073,25.892-187.008c33.874,4.671,66.784,9.224,99.968,13.823
		c1.926,7.357-0.634,13.656-1.892,21.172c-25.333-3.363-50.262-6.648-75.91-10.031c-2.735,19.733-5.265,38.08-7.916,57.256
		c24.095,3.473,47.454,6.806,71.809,10.32C1420.678,2555.558,1419.935,2561.508,1419.006,2569.093z"/>
	<path fill-rule="evenodd" clip-rule="evenodd" fill="#FFFFFF" d="M1557.871,2474.057c10.392-1.217,18.317-2.136,27.36-3.193
		c22.509,50.468,44.889,100.556,67.706,151.712c1.669-9.222,3.025-17.797,4.822-26.321c9.054-43.74,18.266-87.45,27.26-131.2
		c1.018-4.962,3.305-7.076,8.365-7.286c6.009-0.24,11.978-1.188,18.006-1.817c0.59,7.926-39.786,185.94-44.178,195.214
		c-8.217,0.946-16.75,1.946-25.903,3.004C1613.561,2594.228,1586.05,2534.855,1557.871,2474.057z"/>
	<path fill-rule="evenodd" clip-rule="evenodd" fill="#FFFFFF" d="M497.326,1395.82c0.4,1.054,0.83,2.17,1.509,3.948
		c5.634,0,11.604,0,19.253,0c-2.436,2.665-3.643,4.336-5.175,5.589c-5.48,4.507-10.695,9.469-16.7,13.116
		c-8.877,5.351-13.365,14.324-19.624,21.811c-2.14,2.581-0.987,11.544,1.272,14.404c3.804,4.801,10.512,8.195,7.886,16.146
		c3.923,5.371,7.322,11.253,11.963,15.906c2.925,2.93,6.014,5.096,4.507,9.467c-1.448,4.232-5.096,5.301-9.308,5.371
		c-6.225,0.1-11.935-0.07-16.4-5.819c-2.111-2.736-6.33-3.773-9.428-5.82c-2.052-1.356-5.217-2.98-5.451-4.781
		c-1.083-8.693-7.94-10.935-14.947-14.633c-7.73,5.127-15.992,9.983-23.487,15.836c-3.897,3.03-6.763,7.612-9.498,11.874
		c-4.242,6.609-10.201,9.912-14.813,7.506c-4.917-2.586-6.608-9.123-2.94-16.251c3.085-6.023,3.848-12.082,3.748-18.584
		c-0.035-2.516-0.04-5.75,1.382-7.387c5.645-6.383,4.248-13.68,3.968-21.256c-13.521-7.351-26.936-14.664-40.362-21.964
		c0.125-0.753,0.25-1.477,0.375-2.236c19.56-1.997,39.108-4.013,59.377-6.093c5.614-19.604,11.149-38.969,17.258-60.312
		c5.559,8.62,6.652,17.13,9.478,24.855c2.835,7.811,5.301,15.732,7.834,23.357C472.737,1402.468,484.58,1396.443,497.326,1395.82z"
		/>
	<path fill-rule="evenodd" clip-rule="evenodd" fill="#FFFFFF" d="M2652.859,1408.731c-5.661,4.582-11.169,9.363-17.04,13.664
		c-9.104,6.645-17.158,14.115-22.848,23.991c-1.996,3.514-2.066,12.223,0.659,15.292c4.233,4.711,7.655,9,8.665,16.21
		c0.797,5.72,6.956,10.94,11.418,15.791c2.446,2.645,5.689,4.482,4.661,8.656c-1.097,4.541-4.801,5.748-8.874,5.978
		c-6.518,0.369-12.976,0.419-17.147-6.089c-0.479-0.749-1.407-1.337-2.236-1.746c-7.088-3.514-13.874-6.718-15.861-15.981
		c-0.588-2.79-6.657-4.403-10.182-6.539c-10.49,3.514-18.774,10.018-26.869,16.7c-2.646,2.197-4.552,5.33-6.648,8.156
		c-0.749,0.998-1.048,2.355-1.728,3.441c-3.483,5.511-9.402,8.298-13.684,6.539c-4.722-1.965-7.048-8.703-3.785-15.162
		c3.604-7.216,4.901-14.443,4.403-22.33c-0.109-1.801,0.159-4.317,1.298-5.43c6.069-5.874,3.604-13.155,4.322-20.488
		c-13.646-7.365-27.14-14.662-40.627-21.959c0.062-0.709,0.151-1.412,0.23-2.136c19.294-3.305,39.018-3.514,59.35-6.593
		c5.482-19.09,11.061-38.451,17.11-59.612c5.79,8.44,6.758,17.015,9.542,24.81c2.746,7.831,5.36,15.682,8.016,23.387
		c9.912,1.862,18.486-1.722,27.291-2.824c4.441-0.529,9.701-4.747,13.255,1.826c5.43,0,10.851,0,16.271,0
		C2652.169,1407.113,2652.51,1407.923,2652.859,1408.731z"/>
	<path fill-rule="evenodd" clip-rule="evenodd" fill="#FFFFFF" d="M2124.347,2274.683c1.966,7.066,3.652,13.215,5.599,20.242
		c-4.152,1.107-7.784,2.026-11.38,3.055c-13.285,3.753-25.283,9.752-34.076,20.742c-8.984,11.17-8.784,25.184,0.199,35.385
		c4.921,5.569,11.069,9.273,18.556,8.874c9.263-0.48,18.536-1.577,27.71-3.064c13.295-2.146,26.272-4.921,40.146-3.444
		c26.163,2.756,54.362,38.2,37.433,72.877c-3.055,6.26-7.177,12.328-11.918,17.418c-14.673,15.771-33.041,25.444-53.971,30.206
		c-2.727,0.618-5.62,0.528-9.185,0.808c-2.155-6.758-4.151-13.036-6.408-20.133c3.353-0.729,5.729-1.337,8.125-1.756
		c16.929-2.916,32.211-9.226,44.3-21.752c12.336-12.757,13.275-28.808,2.844-41.973c-5.5-6.927-12.666-11.369-21.539-11.05
		c-9.244,0.35-18.527,1.687-27.671,3.243c-12.986,2.228-25.693,5.58-39.158,3.066c-29.745-5.502-46.984-34.947-36.833-63.615
		c3.414-9.612,9.054-17.838,16.551-24.615C2087.764,2286.419,2103.793,2277.467,2124.347,2274.683z"/>
	<path fill-rule="evenodd" clip-rule="evenodd" fill="#FFFFFF" d="M1316.024,2459.393c-3.788,5.731-7.297,11.021-11.184,16.94
		c-3.204-2.215-5.751-3.982-8.301-5.74c-10.806-7.437-22.613-12.308-35.834-12.926c-16.495-0.779-27.6,7.985-30.189,23.527
		c-1.168,7.076,0.414,13.733,4.946,18.984c5.215,6.05,11.18,11.499,17.208,16.76c5.81,5.07,12.173,9.482,18.192,14.324
		c2.234,1.806,4.272,3.902,6.263,6.008c15.405,16.252,20.088,34.878,11.667,55.948c-8.069,20.193-23.746,31.224-44.983,32.87
		c-26.84,2.086-50.636-6.718-71.439-23.726c-0.499-0.39-0.937-0.89-1.287-1.409c-0.355-0.528-0.564-1.146-1.303-2.725
		c3.104-5.12,6.533-10.771,10.476-17.268c3.059,2.375,5.48,4.263,7.93,6.119c14.149,10.779,29.526,18.285,47.848,17.838
		c12.299-0.311,21.936-5.41,27.072-16.84c5.081-11.31,5.07-22.869-3.439-32.61c-5.655-6.479-12.628-11.829-19.137-17.519
		c-7.49-6.568-15.755-12.347-22.532-19.535c-13.42-14.262-17.768-31.053-10.621-49.889c7.073-18.674,21.346-29.057,40.497-31.531
		c24.414-3.124,46.398,4.232,65.773,19.315C1314.372,2456.888,1314.822,2457.796,1316.024,2459.393z"/>
	<path fill-rule="evenodd" clip-rule="evenodd" fill="#FFFFFF" d="M2236.581,2176.811c2.765,5.72,5.539,11.399,8.634,17.798
		c-2.995,1.566-5.38,3.015-7.876,4.111c-14.773,6.458-27.199,16.012-37.012,28.738c-15.433,19.953-19.076,42.094-9.473,65.47
		c9.652,23.497,26.063,41.275,49.588,51.637c15.782,6.986,31.902,6.788,47.834,0c19.096-8.116,32.949-22.16,43.97-39.318
		c1.376-2.136,2.575-4.361,4.361-7.456c2.895,1.717,5.581,3.174,8.145,4.851c2.665,1.756,5.221,3.674,8.046,5.709
		c-0.379,1.747-0.349,3.504-1.108,4.753c-16.091,26.689-37.252,47.772-67.456,57.734c-24.813,8.184-48.452,3.953-70.173-10.054
		c-20.242-13.065-35.714-30.604-44.957-52.981c-11.419-27.629-9.702-54.85,5.301-80.752c11.938-20.613,29.417-35.605,50.487-46.476
		c2.287-1.178,4.691-2.126,7.107-3.005C2233.147,2177.151,2234.454,2177.141,2236.581,2176.811z"/>
	<path fill-rule="evenodd" clip-rule="evenodd" fill="#FFFFFF" d="M1889.844,2408.697c0.212,3.552,0.52,6.717,0.541,9.851
		c0.019,3.156-0.251,6.288-0.44,10.771c-5.569,0-10.619-0.34-15.621,0.06c-21.86,1.756-41.443,8.964-56.865,25.174
		c-9.883,10.392-15.043,22.957-16.15,37.282c-1.519,19.493,2.725,37.761,11.879,54.869c16.01,29.936,44.208,42.164,77.177,33.799
		c15.143-3.854,28.917-10.571,41.904-21.012c3.782,5.699,7.227,10.93,12.017,18.196c-2.105,1.188-4.161,2.167-5.998,3.403
		c-22.588,15.322-46.994,25.084-74.773,24.705c-28.049-0.379-50.287-12.208-66.548-34.847
		c-17.597-24.595-24.715-52.224-20.832-82.179c3.104-24.105,15.292-43.551,34.697-58.074c20.163-15.072,43.15-22.459,68.266-23.326
		c2.226-0.081,4.479,0.078,6.727,0.26C1886.771,2407.698,1887.689,2408.117,1889.844,2408.697z"/>
	<path fill-rule="evenodd" clip-rule="evenodd" fill="#FFFFFF" d="M691.981,2034.062c-6.877,3.902-12.402,7.048-18.755,10.662
		c-9.718-16.66-19.051-32.661-28.848-49.431c-48.362,27.71-96.005,55.009-144.64,82.897c-4.319-7.376-8.3-14.133-12.892-21.93
		c48.441-27.888,96.264-55.429,144.739-83.348c-9.492-16.708-18.626-32.79-28.098-49.459c6.369-3.763,11.859-6.958,18.606-10.92
		C645.366,1952.99,668.39,1993.026,691.981,2034.062z"/>
	<path fill-rule="evenodd" clip-rule="evenodd" fill="#FFFFFF" d="M1103.518,2564.231c-3.025,6.849-5.46,12.349-8.48,19.207
		c-32.245-13.557-63.588-28.031-96.543-42.273c25.464-57.805,50.638-114.939,76.142-172.814c7.985,3.515,14.938,6.579,23.133,10.191
		c-22.48,51.058-44.7,101.484-67.442,153.109C1054.599,2542.451,1078.504,2553.112,1103.518,2564.231z"/>
	<path fill-rule="evenodd" clip-rule="evenodd" fill="#FFFFFF" d="M555.376,2164.384c-5.191-7.566-9.492-13.854-14.284-20.821
		c51.69-35.985,102.633-71.439,154.711-107.693c4.831,6.808,9.354,13.194,14.664,20.662
		C658.612,2092.595,607.455,2128.169,555.376,2164.384z"/>
	<path fill-rule="evenodd" clip-rule="evenodd" fill="#FFFFFF" d="M1714.286,2452.138c8.674-1.757,16.11-3.244,24.715-4.991
		c13.326,61.657,26.472,122.407,39.777,184.033c-8.374,1.896-15.752,3.573-24.517,5.539
		C1740.657,2575.271,1727.662,2514.464,1714.286,2452.138z"/>
	<path fill-rule="evenodd" clip-rule="evenodd" fill="#FFFFFF" d="M790.836,823.256c1.018-1.423,2.03-2.84,3.043-4.257
		c1.258-0.26,2.516-0.764,3.773-0.739c27.031,0.685,54.072,1.409,81.113,2.217c1.815,0.05,3.613,0.833,5.369,1.272
		c-1.097,8.39-1.097,8.474-8.229,8.829c-17.694,0.878-35.381,1.701-53.073,2.5c-11.141,0.495-11.17,0.45-12.917,11.021
		c-2.097,12.657-4.138,25.317-6.394,39.148c-8.055-0.668-15.9-1.323-24.85-2.072C780.313,860.743,786.329,842.142,790.836,823.256z"
		/>
	<path fill-rule="evenodd" clip-rule="evenodd" fill="#E8410C" d="M951.65,2015.485c-63.298-67.805-112.2-144.025-147.12-229.209
		c-31.761-77.429-50.313-157.923-55.055-241.729c2.482-0.68,3.983-1.477,5.491-1.457c58.279,0.238,116.562,0.719,174.855,0.848
		c82.779,0.15,165.562,0.1,248.34-0.06c6.209,0,10.616,1.626,15.123,6.219c27.435,28.039,70.944,28.129,98.629,0.238
		c4.453-4.472,8.759-6.507,15.072-6.468c40.592,0.221,81.177,0.109,121.748,0.109c2.2,0,4.401,0.229,7.9,0.42
		c-1.842,2.445-2.874,4.232-4.322,5.649c-28.193,27.36-56.487,54.661-84.6,82.101c-3.734,3.662-7.381,5.01-12.788,4.722
		c-39.741-2.136-72.771,28.688-72.986,68.395c-0.039,7.535-2.505,12.657-7.655,17.608
		c-57.041,54.999-113.988,110.078-170.929,165.187c-41.418,40.096-82.777,80.244-124.172,120.37
		C956.912,2010.646,954.561,2012.762,951.65,2015.485z"/>
	<path fill-rule="evenodd" clip-rule="evenodd" fill="#E8410C" d="M749.312,1459.643c3.563-77.313,19.269-151.224,45.835-222.853
		c35.25-95.037,87.594-179.561,157.432-254.31c4.053,3.464,7.677,6.089,10.73,9.259c46.934,48.701,93.714,97.542,140.678,146.197
		c48.536,50.303,97.207,100.486,145.918,150.618c4.012,4.129,5.919,8.416,6.548,14.304c3.708,35.406,27.903,59.333,63.189,63.669
		c3.234,0.394,7.037,1.787,9.243,4.043c27.301,27.83,54.336,55.888,81.426,83.912c1.003,1.048,1.658,2.426,3.104,4.58
		c-3.567,0.271-6.028,0.634-8.488,0.634c-32.2,0.056-64.422-0.089-96.647,0.156c-6.539,0.034-11.325-1.688-16.126-6.525
		c-28.134-28.283-71.464-28.037-99.409,0.466c-4.213,4.301-8.36,6.059-14.323,6.059c-114.046-0.14-228.099-0.14-342.139-0.076
		c-26.742,0-53.467,0.314-80.198,0.47C754.521,1460.267,752.939,1459.987,749.312,1459.643z"/>
	<path fill-rule="evenodd" clip-rule="evenodd" fill="#E8410C" d="M1566.845,1418.304c-0.239-4.378-0.587-7.473-0.587-10.571
		c-0.021-40.895,0.14-81.79-0.101-122.69c-0.051-7.571,1.807-13.082,7.456-18.623c26.661-26.231,26.86-70.07,0.498-96.588
		c-5.748-5.779-7.935-11.379-7.926-19.384c0.212-122.71,0.14-245.425,0.14-368.142c0-11.209,0-22.418,0-34.781
		c4.344,0,7.747-0.265,11.091,0.034c38.55,3.464,76.56,10.257,114.012,19.945c104,26.93,198.356,73.53,282.333,140.572
		c19.604,15.651,37.842,33.014,56.638,49.649c2.125,1.867,3.822,4.188,6.207,6.818c-4.162,4.236-7.896,8.164-11.778,11.922
		c-68.673,66.594-137.318,133.197-206.021,199.729c-23.828,23.074-47.903,45.891-71.609,69.09c-4.034,3.923-7.887,4.51-13.018,3.677
		c-37.031-5.79-70.689,16.993-78.465,53.691c-1.708,8.001-1.379,16.604-0.9,24.869c0.26,4.233,0.062,7.193-3.143,10.257
		c-26.482,25.443-52.794,51.021-79.215,76.529C1571.188,1415.548,1569.529,1416.406,1566.845,1418.304z"/>
	<path fill-rule="evenodd" clip-rule="evenodd" fill="#E8410C" d="M1481.401,1405.65c-3.238-2.994-5.575-4.975-7.711-7.175
		c-25.129-25.853-50.122-51.882-75.457-77.525c-4.512-4.581-4.716-9.163-4.112-14.838c2.96-27.279-6.697-49.28-28.837-65.484
		c-14.113-10.351-30.295-13.965-47.532-12.087c-5.685,0.624-9.573-0.651-13.551-4.792
		c-52.733-54.709-105.602-109.295-158.516-163.831c-35.415-36.519-70.984-72.891-106.46-109.345
		c-8.259-8.494-16.409-17.088-25.368-26.432c72.952-62.026,153.828-107.998,243.25-138.951
		c72.488-25.098,147.081-38.745,225.048-40.976c0,4.991,0.02,8.75,0,12.517c0,91.133,0,182.272-0.03,273.405
		c0,41.216-0.14,82.43,0.064,123.649c0.042,5.96-1.717,10.067-5.983,14.29c-28.647,28.428-28.349,71.269,0.534,100.102
		c3.355,3.338,5.525,6.537,5.491,11.614c-0.19,39.937-0.106,79.85-0.14,119.786
		C1482.091,1401.09,1481.781,1402.603,1481.401,1405.65z"/>
	<path fill-rule="evenodd" clip-rule="evenodd" fill="#E8410C" d="M1482.156,2255.128
		c-177.765-7.297-333.306-67.237-468.203-179.812c10.999-11.519,20.86-22.519,31.426-32.801
		c73.236-71.149,146.627-142.13,219.948-213.189c15.727-15.242,31.458-30.454,47.049-45.846c5.475-5.38,11.155-8.136,19.4-8.245
		c43.045-0.609,69.248-36.134,68.28-68.195c-0.205-6.039,1.896-10.211,6.198-14.304c23.063-22.021,45.852-44.31,68.78-66.478
		c1.75-1.688,3.752-3.095,6.607-5.44c0.17,3.423,0.414,5.559,0.414,7.694c0.036,27.391-0.19,54.751,0.134,82.142
		c0.075,6.626-1.821,11.239-6.607,15.959c-27.192,26.652-27.604,70.402-0.769,97.244c5.539,5.539,7.501,11.01,7.485,18.585
		c-0.244,98.908-0.224,197.777-0.244,296.678c-0.015,33.179,0.07,66.368,0.1,99.537
		C1482.156,2243.458,1482.156,2248.261,1482.156,2255.128z"/>
	<path fill-rule="evenodd" clip-rule="evenodd" fill="#E8410C" d="M1615.728,1543.969c4.89,0,7.415,0,9.959,0
		c35.107-0.02,70.214,0.09,105.309-0.12c5.91-0.039,10.031,1.638,14.274,5.989c27.618,28.397,71.639,28.467,99.298,0.14
		c4.532-4.652,9.033-6.109,15.162-6.099c128.815,0.099,257.619,0.07,386.413,0.04c3.204,0,6.389,0,9.772,0
		c2.915,7.467,1.248,14.523,0.619,21.36c-7.048,77.469-25.123,152.262-55.029,224.131c-32.471,77.996-76.78,148.568-132.728,211.802
		c-1.507,1.687-2.844,3.473-4.771,5.81c-2.756-2.415-4.921-4.123-6.838-6.08c-39.458-40.685-78.846-81.421-118.293-122.095
		c-31.614-32.582-63.255-65.112-94.877-97.673c-19.506-20.071-38.97-40.227-58.503-60.278c-3.125-3.185-4.361-6.509-4.193-11.17
		c1.358-40.896-28.587-72.378-69.513-73.037c-5.281-0.079-9.072-1.457-12.686-5.229c-25.853-26.951-51.865-53.772-77.799-80.663
		C1619.818,1549.25,1618.58,1547.482,1615.728,1543.969z"/>
	<path fill-rule="evenodd" clip-rule="evenodd" fill="#E8410C" d="M1566.297,2252.483c0-5.91,0-10.023,0-14.145
		c0.02-95.336,0.06-190.662,0.06-285.957c0-36.714,0.061-73.417-0.171-110.139c-0.048-7.177,1.888-12.537,7.238-17.848
		c27.089-26.931,27.181-70.252,0.198-97.273c-5.278-5.299-7.465-10.429-7.364-17.727c0.308-27.37,0.099-54.739,0.159-82.1
		c0.009-2.805,0.389-5.61,0.699-9.872c3.003,2.536,4.99,3.953,6.668,5.67c21.528,22.169,42.98,44.438,64.629,66.519
		c3.436,3.534,4.613,7.067,4.523,11.988c-0.908,43.102,28.518,73.405,71.688,73.774c5.37,0.051,8.814,1.837,12.467,5.62
		c32.342,33.658,64.962,67.058,97.423,100.597c57.764,59.681,115.478,119.422,173.184,179.152c1.557,1.586,2.883,3.363,5.08,5.997
		c-57.205,50.49-120.229,90.994-189.354,122.019C1735.277,2223.795,1653.558,2245.187,1566.297,2252.483z"/>
	<path fill-rule="evenodd" clip-rule="evenodd" fill="#E8410C" d="M2093.741,1027.179
		c100.049,127.647,154.537,270.64,164.65,431.883c-4.652,0.326-7.768,0.715-10.901,0.715c-86.96,0.04-173.932,0-260.911-0.011
		c-42.184,0-84.367-0.089-126.579,0.066c-6.108,0.02-10.621-1.322-15.173-6.061c-27.648-28.552-71.439-28.657-99.348-0.378
		c-4.462,4.526-8.825,6.563-15.133,6.492c-23.517-0.288-47.044-0.12-70.562-0.174c-3.114,0-6.228-0.279-10.84-0.514
		c2.415-2.98,3.713-4.991,5.432-6.643c20.521-20.004,41.183-39.902,61.665-59.951c4.094-4.012,8.396-6.249,14.326-6.763
		c31.56-2.654,57.233-27.145,61.276-58.696c0.798-6.229,3.025-10.741,7.387-14.978c52.384-50.532,104.679-101.181,156.942-151.828
		c42.793-41.454,85.544-82.963,128.337-124.432C2087.034,1033.258,2089.889,1030.752,2093.741,1027.179z"/>
	<path fill-rule="evenodd" clip-rule="evenodd" fill="#34306E" d="M627.548,824.43c-5.365-1.534-8.958-2.566-13.49-3.869
		c0.54,4.557,0.979,8.265,1.568,13.186c-32.163,6.693-64.676,11.729-96.858,17.907c-0.429-1.083-0.962-1.817-0.789-2.086
		c11.3-17.178,22.265-34.616,34.137-51.401c8.265-11.659,17.459-22.717,26.837-33.523c9.481-10.915,19.728-21.187,29.625-31.747
		c12.967-13.82,25.923-27.659,39.793-42.452c10.565,9.782,20.807,19.269,31.646,29.301c-9.204,9.986-18.101,19.624-26.985,29.281
		c-4.353,4.736-8.81,9.383-12.992,14.259C625.054,780.785,618.036,800.149,627.548,824.43z"/>
	<path fill-rule="evenodd" clip-rule="evenodd" fill="#453F7A" d="M914.874,591.604c16.37-16.733,24.939-35.2,14.892-57.29
		c-9.498-20.927-28.577-26.191-50.882-27.105c2.332-1.885,3.763-3.299,5.421-4.326c19.654-12.308,39.333-24.556,59.012-36.813
		c1.088-0.674,2.172-1.453,3.38-1.856c9.057-3.055,18.16-6.034,28.113-9.318c10.741,22.792,21.531,45.712,31.481,66.832
		c-3.138,6.579-5.693,11.55-7.92,16.675c-3.308,7.671-5.964,15.656-9.652,23.138C974.065,591.26,948.362,601.962,914.874,591.604z"
		/>
	<path fill-rule="evenodd" clip-rule="evenodd" fill="#34306E" d="M521.662,868.329c32.585-6.138,63.959-12.058,95.217-17.958
		c5.998,15.888,1.018,37.232-10.73,47.564c-9.813,8.654-23.868,9.991-36.944,2.944c-6.481-3.498-12.501-7.892-18.66-11.963
		c-8.86-5.849-17.662-11.765-26.468-17.684C523.573,870.9,523.264,870.276,521.662,868.329z"/>
	<path fill-rule="evenodd" clip-rule="evenodd" fill="#34306E" d="M1935.212,517.117c46.075,9.207,81.58-29.521,50.338-77.448
		c27.19,8.48,75.592,33.299,96.913,49.957c-13.116,22.151-26.312,44.431-39.897,67.408c-12.167-5.45-22.968,2.041-34.517,2.938
		c-7.985,0.615-16.021,1.813-23.977,1.378c-14.911-0.809-26.891-8.01-36.254-19.519
		C1942.1,534.795,1938.245,526.774,1935.212,517.117z"/>
	<path fill-rule="evenodd" clip-rule="evenodd" fill="#34306E" d="M1359.953,424.097c-4.446-4.795-7.401-7.985-10.396-11.204
		c-11.155,9.012-21.69,18.35-33.083,26.45c-11.325,8.046-24.271,12.857-38.18,14.669c-0.234-0.973-0.69-1.717-0.46-2.097
		c8.915-16.11,6.523-32.27,0.156-48.401c-5.11-12.976-12.578-24.595-21.211-35.495c-2.176-2.734-4.317-5.49-7.177-9.144
		c4.451-1.267,8.001-2.455,11.625-3.288c17.536-4.053,35.06-8.185,52.668-11.894c4.546-0.954,9.363-0.449,14.044-0.664
		c7.297-0.329,14.558-0.713,23.222-1.132C1354.031,368.798,1356.889,395.354,1359.953,424.097z"/>
	<path fill-rule="evenodd" clip-rule="evenodd" fill="#34306E" d="M628.063,2208.242c-0.489-10.63,2.905-21.06,8.354-30.612
		c14.515-25.405,35.77-42.782,64.184-50.459c29.331-7.935,57.709,7.479,66.852,35.675c4.722,14.563,2.656,28.767-3.842,42.114
		c-14.678,30.134-38.485,49.619-71.305,56.705C658.713,2268.912,627.914,2243.129,628.063,2208.242z"/>
	<path fill-rule="evenodd" clip-rule="evenodd" fill="#34306E" d="M1473.637,2558.572c0-22.409,0-44.149,0-66.289
		c15.959-3.912,31.093-3.582,45.836,1.906c13.296,4.942,19.475,15.483,19.744,29.167c0.279,13.536-5.142,24.485-17.578,30.854
		c-4.193,2.156-8.983,3.515-13.646,4.393C1496.585,2560.728,1485.134,2560.229,1473.637,2558.572z"/>
	<path fill-rule="evenodd" clip-rule="evenodd" fill="#35316F" d="M495.131,1891.713c29.955-2.865,58.188-5.541,87.007-8.295
		c-21.623,19.235-42.877,38.169-65.286,58.104C509.589,1924.861,502.622,1908.901,495.131,1891.713z"/>
	<path fill-rule="evenodd" clip-rule="evenodd" fill="#34306E" d="M923.043,2407.698c22.384-19.354,43.895-37.96,66.054-57.105
		c-6.533,28.537-12.872,56.207-19.515,85.264C953.742,2426.245,938.804,2417.231,923.043,2407.698z"/>
</g>
</svg>
